<svg xmlns="http://www.w3.org/2000/svg" xmlns:xlink="http://www.w3.org/1999/xlink" version="1.1" width="4013px" height="2482px" style="shape-rendering:geometricPrecision; text-rendering:geometricPrecision; image-rendering:optimizeQuality; fill-rule:evenodd; clip-rule:evenodd">
<g><path style="opacity:0.991" fill="#e8c32e" d="M 2994.5,789.5 C 2966.23,817.825 2937.23,845.492 2907.5,872.5C 2905.2,854.797 2905.7,837.13 2909,819.5C 2910.54,817.622 2912.38,816.122 2914.5,815C 2925.66,810.922 2936.32,811.756 2946.5,817.5C 2947.44,817.392 2948.28,817.059 2949,816.5C 2949.97,796.206 2953.47,776.372 2959.5,757C 2959.14,754.096 2958.48,751.263 2957.5,748.5C 2958.22,744.282 2960.72,741.948 2965,741.5C 2967.06,742.112 2968.89,743.112 2970.5,744.5C 2973.26,753.332 2975.43,762.332 2977,771.5C 2979.69,780.685 2985.52,786.685 2994.5,789.5 Z"/></g>
<g><path style="opacity:0.997" fill="#e3c03b" d="M 2994.5,789.5 C 3000.8,790.166 3007.14,790.833 3013.5,791.5C 3015.48,793.795 3016.65,796.461 3017,799.5C 3021.68,802.697 3026.18,806.03 3030.5,809.5C 3004.17,834.833 2977.83,860.167 2951.5,885.5C 2941.17,894.494 2931.17,903.828 2921.5,913.5C 2914.86,900.589 2910.2,886.922 2907.5,872.5C 2937.23,845.492 2966.23,817.825 2994.5,789.5 Z"/></g>
<g><path style="opacity:0.999" fill="#e9c42f" d="M 3030.5,809.5 C 3040.79,817.286 3050.96,825.286 3061,833.5C 3068.94,829.325 3076.44,829.992 3083.5,835.5C 3063.47,854.867 3043.13,873.867 3022.5,892.5C 2998.65,890.575 2974.98,888.242 2951.5,885.5C 2977.83,860.167 3004.17,834.833 3030.5,809.5 Z"/></g>
<g><path style="opacity:0.995" fill="#e3c03c" d="M 3083.5,835.5 C 3095.18,843.84 3108.18,848.84 3122.5,850.5C 3122.49,852.017 3121.82,853.184 3120.5,854C 3105,867.667 3090,881.834 3075.5,896.5C 3069.8,902.205 3063.8,907.538 3057.5,912.5C 3040.52,910.891 3023.52,909.557 3006.5,908.5C 3012.14,903.527 3017.47,898.194 3022.5,892.5C 3043.13,873.867 3063.47,854.867 3083.5,835.5 Z"/></g>
<g><path style="opacity:0.993" fill="#e9c430" d="M 3122.5,850.5 C 3128.18,850.334 3133.84,850.501 3139.5,851C 3145.37,855.438 3151.71,859.105 3158.5,862C 3162.5,866.333 3166.5,870.667 3170.5,875C 3172.31,875.757 3173.98,876.59 3175.5,877.5C 3165.83,886.167 3156.17,894.833 3146.5,903.5C 3122.7,901.216 3099.04,898.883 3075.5,896.5C 3090,881.834 3105,867.667 3120.5,854C 3121.82,853.184 3122.49,852.017 3122.5,850.5 Z"/></g>
<g><path style="opacity:0.989" fill="#e4c03d" d="M 3175.5,877.5 C 3181.18,877.334 3186.84,877.501 3192.5,878C 3196.28,884.055 3199.11,890.555 3201,897.5C 3201.81,901.027 3201.64,904.36 3200.5,907.5C 3193.89,912.774 3187.56,918.44 3181.5,924.5C 3181.08,923.778 3180.42,923.278 3179.5,923C 3163.66,921.765 3147.99,920.265 3132.5,918.5C 3137.17,913.5 3141.83,908.5 3146.5,903.5C 3156.17,894.833 3165.83,886.167 3175.5,877.5 Z"/></g>
<g><path style="opacity:0.991" fill="#ebc434" d="M 2951.5,885.5 C 2974.98,888.242 2998.65,890.575 3022.5,892.5C 3017.47,898.194 3012.14,903.527 3006.5,908.5C 2976.47,936.861 2946.47,965.195 2916.5,993.5C 2906.16,1003.84 2895.49,1013.84 2884.5,1023.5C 2860.64,1021.7 2836.97,1019.36 2813.5,1016.5C 2818.19,1011.14 2823.19,1006.14 2828.5,1001.5C 2831.89,1001.78 2835.06,1002.78 2838,1004.5C 2839.67,1003.5 2841.33,1002.5 2843,1001.5C 2844.79,997.423 2846.95,993.59 2849.5,990C 2853.9,989.254 2858.23,988.254 2862.5,987C 2870.83,982.667 2879.17,978.333 2887.5,974C 2891.17,973 2894.83,972 2898.5,971C 2909.83,963.356 2921.66,962.523 2934,968.5C 2937.15,967.24 2939.15,964.907 2940,961.5C 2942.33,956.232 2942.66,950.899 2941,945.5C 2936,938.167 2931,930.833 2926,923.5C 2924.21,920.264 2922.71,916.93 2921.5,913.5C 2931.17,903.828 2941.17,894.494 2951.5,885.5 Z"/></g>
<g><path style="opacity:1" fill="#ebc434" d="M 3075.5,896.5 C 3099.04,898.883 3122.7,901.216 3146.5,903.5C 3141.83,908.5 3137.17,913.5 3132.5,918.5C 3101.56,946.441 3071.22,975.108 3041.5,1004.5C 3030.5,1014.5 3019.5,1024.5 3008.5,1034.5C 2984.69,1032.32 2961.03,1029.99 2937.5,1027.5C 2947.17,1018.17 2956.83,1008.83 2966.5,999.5C 2997.16,970.837 3027.5,941.837 3057.5,912.5C 3063.8,907.538 3069.8,902.205 3075.5,896.5 Z"/></g>
<g><path style="opacity:0.997" fill="#ebc435" d="M 3200.5,907.5 C 3199.59,911.131 3199.42,914.797 3200,918.5C 3203.31,926.947 3206.47,935.447 3209.5,944C 3207.41,949.129 3206.07,954.462 3205.5,960C 3206.31,965.218 3207.31,970.384 3208.5,975.5C 3207.76,975.369 3207.09,975.536 3206.5,976C 3186.6,995.398 3166.6,1014.56 3146.5,1033.5C 3142.5,1037.17 3138.5,1040.83 3134.5,1044.5C 3110.81,1043.05 3087.14,1041.22 3063.5,1039C 3062.94,1038.62 3062.61,1038.12 3062.5,1037.5C 3072.17,1028.17 3081.83,1018.83 3091.5,1009.5C 3121.5,981.167 3151.5,952.833 3181.5,924.5C 3187.56,918.44 3193.89,912.774 3200.5,907.5 Z"/></g>
<g><path style="opacity:1" fill="#e6c141" d="M 3006.5,908.5 C 3023.52,909.557 3040.52,910.891 3057.5,912.5C 3027.5,941.837 2997.16,970.837 2966.5,999.5C 2966.08,998.778 2965.42,998.278 2964.5,998C 2948.45,996.708 2932.45,995.208 2916.5,993.5C 2946.47,965.195 2976.47,936.861 3006.5,908.5 Z"/></g>
<g><path style="opacity:1" fill="#e6c141" d="M 3132.5,918.5 C 3147.99,920.265 3163.66,921.765 3179.5,923C 3180.42,923.278 3181.08,923.778 3181.5,924.5C 3151.5,952.833 3121.5,981.167 3091.5,1009.5C 3075,1007.6 3058.33,1005.94 3041.5,1004.5C 3071.22,975.108 3101.56,946.441 3132.5,918.5 Z"/></g>
<g><path style="opacity:1" fill="#d09d15" d="M 1736.5,1182.5 C 1742.31,1183.49 1748.31,1183.82 1754.5,1183.5C 1754.5,1198.17 1754.5,1212.83 1754.5,1227.5C 1732.17,1227.5 1709.83,1227.5 1687.5,1227.5C 1687.5,1148.17 1687.5,1068.83 1687.5,989.5C 1703.83,989.5 1720.17,989.5 1736.5,989.5C 1736.5,1053.83 1736.5,1118.17 1736.5,1182.5 Z"/></g>
<g><path style="opacity:1" fill="#cc9915" d="M 1234.5,989.5 C 1246.14,987.769 1255.98,991.103 1264,999.5C 1271.42,1016.16 1266.59,1027.66 1249.5,1034C 1237.34,1036.83 1227.17,1033.67 1219,1024.5C 1211.68,1007.15 1216.85,995.479 1234.5,989.5 Z"/></g>
<g><path style="opacity:1" fill="#cf9b15" d="M 1525.5,1214.5 C 1525.03,1213.09 1524.03,1212.43 1522.5,1212.5C 1522.03,1211.09 1521.03,1210.43 1519.5,1210.5C 1518.5,1210.17 1517.83,1209.5 1517.5,1208.5C 1516.74,1206.74 1515.4,1205.74 1513.5,1205.5C 1512.88,1205.39 1512.38,1205.06 1512,1204.5C 1495.77,1217.35 1477.27,1224.85 1456.5,1227C 1434.94,1229.42 1413.94,1227.08 1393.5,1220C 1388.83,1218.33 1384.49,1216.16 1380.5,1213.5C 1380.03,1212.09 1379.03,1211.43 1377.5,1211.5C 1375.97,1211.57 1374.97,1210.91 1374.5,1209.5C 1374.03,1208.09 1373.03,1207.43 1371.5,1207.5C 1369.77,1206.88 1368.27,1205.88 1367,1204.5C 1352.98,1217.26 1336.48,1224.76 1317.5,1227C 1299.8,1228.83 1282.46,1227.17 1265.5,1222C 1260.33,1220.25 1255.66,1217.75 1251.5,1214.5C 1251.03,1213.09 1250.03,1212.43 1248.5,1212.5C 1248.03,1211.09 1247.03,1210.43 1245.5,1210.5C 1244.47,1209.64 1243.3,1208.98 1242,1208.5C 1228.11,1219.36 1212.27,1225.53 1194.5,1227C 1168.83,1227.67 1143.17,1227.67 1117.5,1227C 1104.31,1225.88 1092.31,1221.71 1081.5,1214.5C 1081.03,1213.09 1080.03,1212.43 1078.5,1212.5C 1078.03,1211.09 1077.03,1210.43 1075.5,1210.5C 1074.52,1209.86 1073.52,1209.19 1072.5,1208.5C 1058.36,1219.27 1042.36,1225.44 1024.5,1227C 998.5,1227.67 972.5,1227.67 946.5,1227C 940.116,1226.26 933.949,1224.76 928,1222.5C 922.391,1269.05 896.224,1294.05 849.5,1297.5C 846.833,1297.5 844.167,1297.5 841.5,1297.5C 841.5,1282.83 841.5,1268.17 841.5,1253.5C 843.415,1253.78 845.081,1253.45 846.5,1252.5C 852.256,1251.62 857.589,1249.62 862.5,1246.5C 865.5,1245.5 867.5,1243.5 868.5,1240.5C 872.362,1234.06 874.529,1227.06 875,1219.5C 875.5,1177.5 875.667,1135.5 875.5,1093.5C 869.5,1093.5 863.5,1093.5 857.5,1093.5C 857.5,1081.17 857.5,1068.83 857.5,1056.5C 881.167,1056.5 904.833,1056.5 928.5,1056.5C 928.333,1089.17 928.5,1121.84 929,1154.5C 931.405,1169.9 940.238,1179.07 955.5,1182C 974.833,1182.67 994.167,1182.67 1013.5,1182C 1018.68,1181.55 1023.68,1180.38 1028.5,1178.5C 1030.03,1178.57 1031.03,1177.91 1031.5,1176.5C 1033.4,1176.26 1034.74,1175.26 1035.5,1173.5C 1035.5,1172.83 1035.83,1172.5 1036.5,1172.5C 1038.26,1171.74 1039.26,1170.4 1039.5,1168.5C 1042.57,1162.21 1044.41,1155.54 1045,1148.5C 1045.5,1117.84 1045.67,1087.17 1045.5,1056.5C 1069.83,1056.5 1094.17,1056.5 1118.5,1056.5C 1118.5,1071.17 1118.5,1085.83 1118.5,1100.5C 1111.5,1100.5 1104.5,1100.5 1097.5,1100.5C 1097.17,1118.01 1097.5,1135.34 1098.5,1152.5C 1099.37,1158.1 1101.03,1163.43 1103.5,1168.5C 1103.43,1170.03 1104.09,1171.03 1105.5,1171.5C 1111.11,1176.93 1117.78,1180.43 1125.5,1182C 1144.83,1182.67 1164.17,1182.67 1183.5,1182C 1188.68,1181.55 1193.68,1180.38 1198.5,1178.5C 1200.03,1178.57 1201.03,1177.91 1201.5,1176.5C 1203.4,1176.26 1204.74,1175.26 1205.5,1173.5C 1211.31,1166.24 1214.48,1157.91 1215,1148.5C 1215.5,1117.84 1215.67,1087.17 1215.5,1056.5C 1239.83,1056.5 1264.17,1056.5 1288.5,1056.5C 1288.5,1071.17 1288.5,1085.83 1288.5,1100.5C 1281.5,1100.5 1274.5,1100.5 1267.5,1100.5C 1267.17,1118.01 1267.5,1135.34 1268.5,1152.5C 1269.37,1158.1 1271.03,1163.43 1273.5,1168.5C 1273.43,1170.03 1274.09,1171.03 1275.5,1171.5C 1288.9,1183.31 1303.9,1185.64 1320.5,1178.5C 1322.03,1178.57 1323.03,1177.91 1323.5,1176.5C 1329.36,1171.46 1333.19,1165.13 1335,1157.5C 1335.81,1140.12 1337.14,1122.79 1339,1105.5C 1341.44,1093.63 1346.27,1082.96 1353.5,1073.5C 1354.91,1073.03 1355.57,1072.03 1355.5,1070.5C 1358.46,1065.87 1362.12,1061.87 1366.5,1058.5C 1368.4,1058.26 1369.74,1057.26 1370.5,1055.5C 1370.5,1054.83 1370.83,1054.5 1371.5,1054.5C 1373.03,1054.57 1374.03,1053.91 1374.5,1052.5C 1384.89,1044.75 1396.56,1039.58 1409.5,1037C 1441.32,1030.07 1471.65,1034.07 1500.5,1049C 1508.25,1053.58 1514.91,1059.41 1520.5,1066.5C 1520.43,1068.03 1521.09,1069.03 1522.5,1069.5C 1523.17,1069.5 1523.5,1069.83 1523.5,1070.5C 1523.43,1072.03 1524.09,1073.03 1525.5,1073.5C 1536.27,1088.63 1541.77,1105.63 1542,1124.5C 1542.33,1134.5 1542.67,1144.5 1543,1154.5C 1547.84,1175.31 1561.01,1184.48 1582.5,1182C 1587.42,1181.19 1592.08,1179.69 1596.5,1177.5C 1598.03,1177.57 1599.03,1176.91 1599.5,1175.5C 1605.11,1169.62 1608.61,1162.62 1610,1154.5C 1610.5,1099.5 1610.67,1044.5 1610.5,989.5C 1628.17,989.5 1645.83,989.5 1663.5,989.5C 1663.67,1045.5 1663.5,1101.5 1663,1157.5C 1657.27,1195.23 1635.77,1218.06 1598.5,1226C 1579.6,1228.76 1560.94,1227.76 1542.5,1223C 1536.3,1221 1530.63,1218.17 1525.5,1214.5 Z M 1470.5,1088.5 C 1472.5,1091.17 1474.83,1093.5 1477.5,1095.5C 1490.41,1115.06 1492.41,1135.73 1483.5,1157.5C 1482.09,1157.97 1481.43,1158.97 1481.5,1160.5C 1478.75,1164.31 1475.75,1167.98 1472.5,1171.5C 1470.6,1171.74 1469.26,1172.74 1468.5,1174.5C 1445.44,1186.66 1423.78,1184.66 1403.5,1168.5C 1402.92,1166.25 1401.59,1164.58 1399.5,1163.5C 1385.49,1140.27 1386.33,1117.61 1402,1095.5C 1416.41,1081.27 1433.58,1076.44 1453.5,1081C 1459.43,1082.97 1465.09,1085.47 1470.5,1088.5 Z"/></g>
<g><path style="opacity:1" fill="#cf9b15" d="M 2039.5,1213.5 C 2039.03,1212.09 2038.03,1211.43 2036.5,1211.5C 2033.91,1210.25 2031.57,1208.58 2029.5,1206.5C 2029.33,1203.95 2028.33,1203.28 2026.5,1204.5C 2010.89,1217.33 1992.89,1224.83 1972.5,1227C 1963.47,1227.28 1954.47,1227.95 1945.5,1229C 1929.62,1233.88 1921.29,1244.71 1920.5,1261.5C 1919.5,1273.32 1919.17,1285.32 1919.5,1297.5C 1902.5,1297.5 1885.5,1297.5 1868.5,1297.5C 1868.5,1284.17 1868.5,1270.83 1868.5,1257.5C 1868.86,1242.76 1873.19,1229.42 1881.5,1217.5C 1882.91,1217.03 1883.57,1216.03 1883.5,1214.5C 1883.5,1213.83 1883.83,1213.5 1884.5,1213.5C 1885.91,1213.03 1886.57,1212.03 1886.5,1210.5C 1887.5,1210.53 1888.16,1210.03 1888.5,1209C 1888.25,1207.25 1887.25,1206.42 1885.5,1206.5C 1866.96,1192.1 1856.13,1173.1 1853,1149.5C 1850.36,1131.2 1851.7,1113.2 1857,1095.5C 1859.75,1088.33 1863.25,1081.66 1867.5,1075.5C 1868.91,1075.03 1869.57,1074.03 1869.5,1072.5C 1870.44,1069.89 1872.11,1067.89 1874.5,1066.5C 1877.5,1064.17 1880.17,1061.5 1882.5,1058.5C 1891.39,1050.14 1901.73,1043.98 1913.5,1040C 1944.98,1030.48 1975.98,1031.81 2006.5,1044C 2020.13,1050.14 2031.13,1059.3 2039.5,1071.5C 2039.43,1073.03 2040.09,1074.03 2041.5,1074.5C 2043.25,1075.66 2044.25,1077.33 2044.5,1079.5C 2044.43,1081.03 2045.09,1082.03 2046.5,1082.5C 2051.33,1091.15 2054.5,1100.49 2056,1110.5C 2057.15,1124.47 2057.82,1138.47 2058,1152.5C 2060.3,1168.8 2069.47,1178.63 2085.5,1182C 2105.83,1182.67 2126.17,1182.67 2146.5,1182C 2154.11,1180.69 2160.78,1177.53 2166.5,1172.5C 2168.26,1171.74 2169.26,1170.4 2169.5,1168.5C 2171.61,1164.06 2173.11,1159.4 2174,1154.5C 2174.5,1099.5 2174.67,1044.5 2174.5,989.5C 2192.17,989.5 2209.83,989.5 2227.5,989.5C 2227.67,1045.17 2227.5,1100.83 2227,1156.5C 2220.71,1197.79 2196.88,1221.29 2155.5,1227C 2129.17,1227.67 2102.83,1227.67 2076.5,1227C 2062.93,1225.54 2050.6,1221.04 2039.5,1213.5 Z M 1981.5,1085.5 C 1981.97,1086.91 1982.97,1087.57 1984.5,1087.5C 2002.4,1103.75 2008.24,1123.75 2002,1147.5C 1999.87,1154.42 1996.71,1160.75 1992.5,1166.5C 1990.5,1167.83 1988.83,1169.5 1987.5,1171.5C 1986.83,1171.5 1986.5,1171.83 1986.5,1172.5C 1984.97,1172.43 1983.97,1173.09 1983.5,1174.5C 1981.97,1174.43 1980.97,1175.09 1980.5,1176.5C 1956.02,1187.03 1934.35,1183.03 1915.5,1164.5C 1915.57,1162.97 1914.91,1161.97 1913.5,1161.5C 1913.57,1159.97 1912.91,1158.97 1911.5,1158.5C 1904.56,1142.51 1903.73,1126.18 1909,1109.5C 1919.83,1086.5 1937.99,1076.67 1963.5,1080C 1969.79,1080.98 1975.79,1082.82 1981.5,1085.5 Z"/></g>
<g><path style="opacity:1" fill="#d09c15" d="M 2251.5,990.5 C 2268.83,990.5 2286.17,990.5 2303.5,990.5C 2303.17,1044.34 2303.5,1098 2304.5,1151.5C 2308.04,1173.46 2321.04,1183.8 2343.5,1182.5C 2362,1183.83 2380.67,1183.83 2399.5,1182.5C 2399.38,1181.89 2399.04,1181.56 2398.5,1181.5C 2385.49,1154.54 2382.99,1126.54 2391,1097.5C 2393.28,1088.94 2397.12,1081.27 2402.5,1074.5C 2403.91,1074.03 2404.57,1073.03 2404.5,1071.5C 2406.26,1070.74 2407.26,1069.4 2407.5,1067.5C 2407.83,1066.5 2408.5,1065.83 2409.5,1065.5C 2412.17,1063.5 2414.5,1061.17 2416.5,1058.5C 2416.83,1057.5 2417.5,1056.83 2418.5,1056.5C 2420.4,1056.26 2421.74,1055.26 2422.5,1053.5C 2434.64,1044.44 2448.31,1038.61 2463.5,1036C 2480.5,1032.67 2497.5,1032.67 2514.5,1036C 2523.63,1037.77 2532.3,1040.6 2540.5,1044.5C 2540.5,1067.17 2540.5,1089.83 2540.5,1112.5C 2523.5,1112.5 2506.5,1112.5 2489.5,1112.5C 2489.5,1101.17 2489.5,1089.83 2489.5,1078.5C 2486.61,1078.19 2483.95,1078.53 2481.5,1079.5C 2454.1,1085.23 2440.1,1102.23 2439.5,1130.5C 2439.7,1141.99 2442.7,1152.66 2448.5,1162.5C 2448.43,1164.03 2449.09,1165.03 2450.5,1165.5C 2460.13,1175.98 2472.13,1181.65 2486.5,1182.5C 2504.33,1183.5 2522.33,1183.83 2540.5,1183.5C 2540.5,1198.17 2540.5,1212.83 2540.5,1227.5C 2468.17,1227.67 2395.83,1227.5 2323.5,1227C 2309.01,1225.78 2296.01,1220.95 2284.5,1212.5C 2284.03,1211.09 2283.03,1210.43 2281.5,1210.5C 2280.83,1210.5 2280.5,1210.17 2280.5,1209.5C 2280.03,1208.09 2279.03,1207.43 2277.5,1207.5C 2262.48,1194.32 2253.98,1177.66 2252,1157.5C 2251.5,1101.83 2251.33,1046.17 2251.5,990.5 Z"/></g>
<g><path style="opacity:0.439" fill="#7b5d0d" d="M 2251.5,990.5 C 2268.99,989.503 2286.66,989.17 2304.5,989.5C 2304.5,1043.5 2304.5,1097.5 2304.5,1151.5C 2303.5,1098 2303.17,1044.34 2303.5,990.5C 2286.17,990.5 2268.83,990.5 2251.5,990.5 Z"/></g>
<g><path style="opacity:1" fill="#e6be43" d="M 2916.5,993.5 C 2932.45,995.208 2948.45,996.708 2964.5,998C 2965.42,998.278 2966.08,998.778 2966.5,999.5C 2956.83,1008.83 2947.17,1018.17 2937.5,1027.5C 2935.5,1029.17 2933.5,1030.83 2931.5,1032.5C 2931.39,1031.88 2931.06,1031.38 2930.5,1031C 2914.45,1029.72 2898.45,1028.22 2882.5,1026.5C 2883.17,1025.5 2883.83,1024.5 2884.5,1023.5C 2895.49,1013.84 2906.16,1003.84 2916.5,993.5 Z"/></g>
<g><path style="opacity:1" fill="#e8be33" d="M 2813.5,1016.5 C 2836.97,1019.36 2860.64,1021.7 2884.5,1023.5C 2883.83,1024.5 2883.17,1025.5 2882.5,1026.5C 2875.2,1032.13 2868.54,1038.46 2862.5,1045.5C 2862.17,1045.5 2861.83,1045.5 2861.5,1045.5C 2839.18,1043.67 2816.85,1042 2794.5,1040.5C 2794.5,1038.17 2794.5,1035.83 2794.5,1033.5C 2800.54,1027.46 2806.87,1021.8 2813.5,1016.5 Z"/></g>
<g><path style="opacity:0.919" fill="#e3bb40" d="M 2828.5,1001.5 C 2823.19,1006.14 2818.19,1011.14 2813.5,1016.5C 2806.87,1021.8 2800.54,1027.46 2794.5,1033.5C 2793.39,1029.95 2793.39,1026.45 2794.5,1023C 2799.45,1021.19 2804.11,1018.86 2808.5,1016C 2813.2,1010.97 2818.2,1006.3 2823.5,1002C 2825.13,1001.51 2826.8,1001.34 2828.5,1001.5 Z"/></g>
<g><path style="opacity:1" fill="#e6bf43" d="M 3041.5,1004.5 C 3058.33,1005.94 3075,1007.6 3091.5,1009.5C 3081.83,1018.83 3072.17,1028.17 3062.5,1037.5C 3060.83,1038.83 3059.17,1040.17 3057.5,1041.5C 3040.47,1040.53 3023.47,1039.19 3006.5,1037.5C 3007.17,1036.5 3007.83,1035.5 3008.5,1034.5C 3019.5,1024.5 3030.5,1014.5 3041.5,1004.5 Z"/></g>
<g><path style="opacity:1" fill="#e7c044" d="M 3208.5,975.5 C 3211.27,981.481 3213.27,987.814 3214.5,994.5C 3212.77,999.756 3209.6,1004.09 3205,1007.5C 3201.23,1015.33 3202.06,1022.66 3207.5,1029.5C 3204.17,1032.17 3200.83,1034.83 3197.5,1037.5C 3180.5,1036.11 3163.5,1034.78 3146.5,1033.5C 3166.6,1014.56 3186.6,995.398 3206.5,976C 3207.09,975.536 3207.76,975.369 3208.5,975.5 Z"/></g>
<g><path style="opacity:1" fill="#e8be33" d="M 2937.5,1027.5 C 2961.03,1029.99 2984.69,1032.32 3008.5,1034.5C 3007.83,1035.5 3007.17,1036.5 3006.5,1037.5C 2999.79,1043.84 2993.12,1050.18 2986.5,1056.5C 2986.17,1056.5 2985.83,1056.5 2985.5,1056.5C 2961.51,1054.39 2937.51,1052.39 2913.5,1050.5C 2919.19,1044.14 2925.19,1038.14 2931.5,1032.5C 2933.5,1030.83 2935.5,1029.17 2937.5,1027.5 Z"/></g>
<g><path style="opacity:1" fill="#e5bd42" d="M 3146.5,1033.5 C 3163.5,1034.78 3180.5,1036.11 3197.5,1037.5C 3192.78,1043.23 3187.44,1048.23 3181.5,1052.5C 3164.5,1051.17 3147.5,1049.83 3130.5,1048.5C 3131.53,1046.81 3132.86,1045.47 3134.5,1044.5C 3138.5,1040.83 3142.5,1037.17 3146.5,1033.5 Z"/></g>
<g><path style="opacity:1" fill="#e8be33" d="M 3062.5,1037.5 C 3062.61,1038.12 3062.94,1038.62 3063.5,1039C 3087.14,1041.22 3110.81,1043.05 3134.5,1044.5C 3132.86,1045.47 3131.53,1046.81 3130.5,1048.5C 3123.81,1054.86 3117.14,1061.19 3110.5,1067.5C 3109.83,1067.83 3109.17,1068.17 3108.5,1068.5C 3108.08,1067.78 3107.42,1067.28 3106.5,1067C 3083.64,1065.26 3060.97,1063.1 3038.5,1060.5C 3045.14,1054.53 3051.47,1048.19 3057.5,1041.5C 3059.17,1040.17 3060.83,1038.83 3062.5,1037.5 Z"/></g>
<g><path style="opacity:0.994" fill="#e3b82e" d="M 2794.5,1040.5 C 2816.85,1042 2839.18,1043.67 2861.5,1045.5C 2853.5,1052.83 2845.83,1060.5 2838.5,1068.5C 2836.25,1069.42 2834.25,1070.75 2832.5,1072.5C 2819.19,1070.82 2805.69,1069.49 2792,1068.5C 2789.7,1068.45 2787.87,1067.79 2786.5,1066.5C 2791.11,1065.06 2794.28,1062.06 2796,1057.5C 2796.56,1051.74 2796.06,1046.07 2794.5,1040.5 Z"/></g>
<g><path style="opacity:1" fill="#e1b73e" d="M 2882.5,1026.5 C 2898.45,1028.22 2914.45,1029.72 2930.5,1031C 2931.06,1031.38 2931.39,1031.88 2931.5,1032.5C 2925.19,1038.14 2919.19,1044.14 2913.5,1050.5C 2912.83,1050.83 2912.17,1051.17 2911.5,1051.5C 2911.08,1050.78 2910.42,1050.28 2909.5,1050C 2893.75,1048.77 2878.09,1047.27 2862.5,1045.5C 2868.54,1038.46 2875.2,1032.13 2882.5,1026.5 Z"/></g>
<g><path style="opacity:1" fill="#dcb23a" d="M 2861.5,1045.5 C 2861.83,1045.5 2862.17,1045.5 2862.5,1045.5C 2878.09,1047.27 2893.75,1048.77 2909.5,1050C 2910.42,1050.28 2911.08,1050.78 2911.5,1051.5C 2903.53,1059.14 2895.53,1066.81 2887.5,1074.5C 2885.95,1073.21 2883.95,1072.54 2881.5,1072.5C 2867.14,1071.33 2852.8,1070 2838.5,1068.5C 2845.83,1060.5 2853.5,1052.83 2861.5,1045.5 Z"/></g>
<g><path style="opacity:0.982" fill="#e9c034" d="M 3207.5,1029.5 C 3210.65,1032.8 3212.48,1036.8 3213,1041.5C 3213.5,1048.16 3213.67,1054.83 3213.5,1061.5C 3212.55,1062.92 3212.22,1064.59 3212.5,1066.5C 3199.1,1065.38 3185.77,1064.05 3172.5,1062.5C 3175.5,1059.17 3178.5,1055.83 3181.5,1052.5C 3187.44,1048.23 3192.78,1043.23 3197.5,1037.5C 3200.83,1034.83 3204.17,1032.17 3207.5,1029.5 Z"/></g>
<g><path style="opacity:0.944" fill="#e1b52d" d="M 2720.5,1050.5 C 2712.83,1058.17 2704.83,1065.51 2696.5,1072.5C 2695.14,1055.16 2703.14,1047.82 2720.5,1050.5 Z"/></g>
<g><path style="opacity:1" fill="#e3b82e" d="M 2913.5,1050.5 C 2937.51,1052.39 2961.51,1054.39 2985.5,1056.5C 2977.53,1063.81 2969.86,1071.47 2962.5,1079.5C 2961.17,1080.5 2959.83,1081.5 2958.5,1082.5C 2935.82,1080.89 2913.15,1079.05 2890.5,1077C 2888.94,1076.79 2887.61,1076.29 2886.5,1075.5C 2887.17,1075.5 2887.5,1075.17 2887.5,1074.5C 2895.53,1066.81 2903.53,1059.14 2911.5,1051.5C 2912.17,1051.17 2912.83,1050.83 2913.5,1050.5 Z"/></g>
<g><path style="opacity:1" fill="#e1b73e" d="M 3006.5,1037.5 C 3023.47,1039.19 3040.47,1040.53 3057.5,1041.5C 3051.47,1048.19 3045.14,1054.53 3038.5,1060.5C 3038.17,1060.5 3037.83,1060.5 3037.5,1060.5C 3020.46,1059.65 3003.46,1058.31 2986.5,1056.5C 2993.12,1050.18 2999.79,1043.84 3006.5,1037.5 Z"/></g>
<g><path style="opacity:0.984" fill="#987210" d="M 1374.5,1052.5 C 1374.03,1053.91 1373.03,1054.57 1371.5,1054.5C 1371.97,1053.09 1372.97,1052.43 1374.5,1052.5 Z"/></g>
<g><path style="opacity:0.965" fill="#9a7310" d="M 2422.5,1053.5 C 2421.74,1055.26 2420.4,1056.26 2418.5,1056.5C 2419.26,1054.74 2420.6,1053.74 2422.5,1053.5 Z"/></g>
<g><path style="opacity:0.965" fill="#997310" d="M 1370.5,1055.5 C 1369.74,1057.26 1368.4,1058.26 1366.5,1058.5C 1367.26,1056.74 1368.6,1055.74 1370.5,1055.5 Z"/></g>
<g><path style="opacity:1" fill="#dcb23a" d="M 2985.5,1056.5 C 2985.83,1056.5 2986.17,1056.5 2986.5,1056.5C 3003.46,1058.31 3020.46,1059.65 3037.5,1060.5C 3029.78,1069.18 3021.45,1077.18 3012.5,1084.5C 2996.02,1082.4 2979.35,1080.74 2962.5,1079.5C 2969.86,1071.47 2977.53,1063.81 2985.5,1056.5 Z"/></g>
<g><path style="opacity:0.982" fill="#d7ab35" d="M 2720.5,1050.5 C 2729.65,1052.81 2735.82,1058.48 2739,1067.5C 2741.96,1071.66 2745.79,1074.33 2750.5,1075.5C 2747.53,1078.14 2744.53,1080.8 2741.5,1083.5C 2727.38,1081.24 2713.05,1079.57 2698.5,1078.5C 2697.54,1076.7 2696.88,1074.7 2696.5,1072.5C 2704.83,1065.51 2712.83,1058.17 2720.5,1050.5 Z"/></g>
<g><path style="opacity:0.965" fill="#997310" d="M 1882.5,1058.5 C 1880.17,1061.5 1877.5,1064.17 1874.5,1066.5C 1876.17,1062.83 1878.83,1060.17 1882.5,1058.5 Z"/></g>
<g><path style="opacity:0.965" fill="#967110" d="M 2416.5,1058.5 C 2414.5,1061.17 2412.17,1063.5 2409.5,1065.5C 2410.83,1062.17 2413.17,1059.83 2416.5,1058.5 Z"/></g>
<g><path style="opacity:1" fill="#e3b82e" d="M 3037.5,1060.5 C 3037.83,1060.5 3038.17,1060.5 3038.5,1060.5C 3060.97,1063.1 3083.64,1065.26 3106.5,1067C 3107.42,1067.28 3108.08,1067.78 3108.5,1068.5C 3103.14,1074.53 3097.47,1080.19 3091.5,1085.5C 3088.5,1088.17 3085.5,1090.83 3082.5,1093.5C 3058.61,1091.87 3034.95,1089.54 3011.5,1086.5C 3011.83,1085.83 3012.17,1085.17 3012.5,1084.5C 3021.45,1077.18 3029.78,1069.18 3037.5,1060.5 Z"/></g>
<g><path style="opacity:1" fill="#e1b73e" d="M 3130.5,1048.5 C 3147.5,1049.83 3164.5,1051.17 3181.5,1052.5C 3178.5,1055.83 3175.5,1059.17 3172.5,1062.5C 3169.12,1065.88 3165.46,1068.88 3161.5,1071.5C 3144.5,1070.22 3127.5,1068.89 3110.5,1067.5C 3117.14,1061.19 3123.81,1054.86 3130.5,1048.5 Z"/></g>
<g><path style="opacity:1" fill="#ddb23a" d="M 3110.5,1067.5 C 3127.5,1068.89 3144.5,1070.22 3161.5,1071.5C 3155.47,1078.19 3149.14,1084.53 3142.5,1090.5C 3126.48,1089.67 3110.48,1088.5 3094.5,1087C 3093.26,1086.77 3092.26,1086.27 3091.5,1085.5C 3097.47,1080.19 3103.14,1074.53 3108.5,1068.5C 3109.17,1068.17 3109.83,1067.83 3110.5,1067.5 Z"/></g>
<g><path style="opacity:0.863" fill="#8e6a0f" d="M 1520.5,1066.5 C 1521.91,1066.97 1522.57,1067.97 1522.5,1069.5C 1521.09,1069.03 1520.43,1068.03 1520.5,1066.5 Z"/></g>
<g><path style="opacity:0.996" fill="#987210" d="M 2407.5,1067.5 C 2407.26,1069.4 2406.26,1070.74 2404.5,1071.5C 2404.74,1069.6 2405.74,1068.26 2407.5,1067.5 Z"/></g>
<g><path style="opacity:1" fill="#d7ab35" d="M 2838.5,1068.5 C 2852.8,1070 2867.14,1071.33 2881.5,1072.5C 2883.95,1072.54 2885.95,1073.21 2887.5,1074.5C 2887.5,1075.17 2887.17,1075.5 2886.5,1075.5C 2879.83,1081.83 2873.17,1088.17 2866.5,1094.5C 2865.74,1093.73 2864.74,1093.23 2863.5,1093C 2847.75,1091.77 2832.09,1090.27 2816.5,1088.5C 2822.14,1083.53 2827.47,1078.19 2832.5,1072.5C 2834.25,1070.75 2836.25,1069.42 2838.5,1068.5 Z"/></g>
<g><path style="opacity:1" fill="#e4b92f" d="M 3213.5,1061.5 C 3213.2,1065.77 3213.54,1069.93 3214.5,1074C 3216.5,1074.67 3218.5,1074.67 3220.5,1074C 3224.01,1072.37 3227.68,1071.2 3231.5,1070.5C 3235.22,1070.89 3237.22,1072.89 3237.5,1076.5C 3228.17,1084.49 3219.17,1092.83 3210.5,1101.5C 3209.17,1102.5 3207.83,1103.5 3206.5,1104.5C 3182.66,1102.54 3158.99,1100.21 3135.5,1097.5C 3137.53,1094.81 3139.86,1092.47 3142.5,1090.5C 3149.14,1084.53 3155.47,1078.19 3161.5,1071.5C 3165.46,1068.88 3169.12,1065.88 3172.5,1062.5C 3185.77,1064.05 3199.1,1065.38 3212.5,1066.5C 3212.22,1064.59 3212.55,1062.92 3213.5,1061.5 Z"/></g>
<g><path style="opacity:0.937" fill="#9c7510" d="M 1355.5,1070.5 C 1355.57,1072.03 1354.91,1073.03 1353.5,1073.5C 1353.43,1071.97 1354.09,1070.97 1355.5,1070.5 Z"/></g>
<g><path style="opacity:0.863" fill="#916d0f" d="M 1523.5,1070.5 C 1524.91,1070.97 1525.57,1071.97 1525.5,1073.5C 1524.09,1073.03 1523.43,1072.03 1523.5,1070.5 Z"/></g>
<g><path style="opacity:0.906" fill="#956f0f" d="M 2039.5,1071.5 C 2040.91,1071.97 2041.57,1072.97 2041.5,1074.5C 2040.09,1074.03 2039.43,1073.03 2039.5,1071.5 Z"/></g>
<g><path style="opacity:0.937" fill="#9b7410" d="M 2404.5,1071.5 C 2404.57,1073.03 2403.91,1074.03 2402.5,1074.5C 2402.43,1072.97 2403.09,1071.97 2404.5,1071.5 Z"/></g>
<g><path style="opacity:1" fill="#deb129" d="M 2786.5,1066.5 C 2787.87,1067.79 2789.7,1068.45 2792,1068.5C 2805.69,1069.49 2819.19,1070.82 2832.5,1072.5C 2827.47,1078.19 2822.14,1083.53 2816.5,1088.5C 2811.5,1093.17 2806.5,1097.83 2801.5,1102.5C 2777.51,1100.44 2753.51,1098.44 2729.5,1096.5C 2733.5,1092.17 2737.5,1087.83 2741.5,1083.5C 2744.53,1080.8 2747.53,1078.14 2750.5,1075.5C 2753.9,1074.98 2757.23,1074.15 2760.5,1073C 2768.29,1067.46 2776.96,1065.29 2786.5,1066.5 Z"/></g>
<g><path style="opacity:0.906" fill="#977110" d="M 1869.5,1072.5 C 1869.57,1074.03 1868.91,1075.03 1867.5,1075.5C 1867.43,1073.97 1868.09,1072.97 1869.5,1072.5 Z"/></g>
<g><path style="opacity:0.974" fill="#dcb139" d="M 3237.5,1076.5 C 3239.29,1082.67 3241.79,1088.67 3245,1094.5C 3246.35,1097.72 3247.19,1101.05 3247.5,1104.5C 3235.24,1102.89 3222.9,1101.89 3210.5,1101.5C 3219.17,1092.83 3228.17,1084.49 3237.5,1076.5 Z"/></g>
<g><path style="opacity:1" fill="#d7ab35" d="M 2962.5,1079.5 C 2979.35,1080.74 2996.02,1082.4 3012.5,1084.5C 3012.17,1085.17 3011.83,1085.83 3011.5,1086.5C 3004.53,1092.13 2997.87,1098.13 2991.5,1104.5C 2974.98,1102.72 2958.31,1101.06 2941.5,1099.5C 2946.86,1093.47 2952.53,1087.81 2958.5,1082.5C 2959.83,1081.5 2961.17,1080.5 2962.5,1079.5 Z"/></g>
<g><path style="opacity:0.753" fill="#8d6a0f" d="M 2044.5,1079.5 C 2045.91,1079.97 2046.57,1080.97 2046.5,1082.5C 2045.09,1082.03 2044.43,1081.03 2044.5,1079.5 Z"/></g>
<g><path style="opacity:1" fill="#deb129" d="M 2886.5,1075.5 C 2887.61,1076.29 2888.94,1076.79 2890.5,1077C 2913.15,1079.05 2935.82,1080.89 2958.5,1082.5C 2952.53,1087.81 2946.86,1093.47 2941.5,1099.5C 2935.87,1103.79 2930.54,1108.46 2925.5,1113.5C 2901.67,1111.43 2878.01,1109.1 2854.5,1106.5C 2858.17,1102.17 2862.17,1098.17 2866.5,1094.5C 2873.17,1088.17 2879.83,1081.83 2886.5,1075.5 Z"/></g>
<g><path style="opacity:0.906" fill="#987210" d="M 1981.5,1085.5 C 1983.03,1085.43 1984.03,1086.09 1984.5,1087.5C 1982.97,1087.57 1981.97,1086.91 1981.5,1085.5 Z"/></g>
<g><path style="opacity:0.996" fill="#926d0f" d="M 1470.5,1088.5 C 1473.83,1089.83 1476.17,1092.17 1477.5,1095.5C 1474.83,1093.5 1472.5,1091.17 1470.5,1088.5 Z"/></g>
<g><path style="opacity:0.988" fill="#d2a430" d="M 2698.5,1078.5 C 2713.05,1079.57 2727.38,1081.24 2741.5,1083.5C 2737.5,1087.83 2733.5,1092.17 2729.5,1096.5C 2720.53,1104.14 2711.86,1112.14 2703.5,1120.5C 2702.17,1121.5 2700.83,1122.5 2699.5,1123.5C 2700.91,1108.43 2700.58,1093.43 2698.5,1078.5 Z"/></g>
<g><path style="opacity:0.96" fill="#d8ac36" d="M 3091.5,1085.5 C 3092.26,1086.27 3093.26,1086.77 3094.5,1087C 3110.48,1088.5 3126.48,1089.67 3142.5,1090.5C 3139.86,1092.47 3137.53,1094.81 3135.5,1097.5C 3129.8,1103.2 3123.8,1108.54 3117.5,1113.5C 3115.94,1105.52 3114.44,1097.52 3113,1089.5C 3106.62,1097.04 3100.45,1104.71 3094.5,1112.5C 3084.82,1112.07 3075.15,1111.41 3065.5,1110.5C 3070.86,1104.47 3076.53,1098.81 3082.5,1093.5C 3085.5,1090.83 3088.5,1088.17 3091.5,1085.5 Z"/></g>
<g><path style="opacity:1" fill="#deb129" d="M 3011.5,1086.5 C 3034.95,1089.54 3058.61,1091.87 3082.5,1093.5C 3076.53,1098.81 3070.86,1104.47 3065.5,1110.5C 3060.8,1115.21 3055.8,1119.54 3050.5,1123.5C 3028.81,1122.22 3007.14,1120.55 2985.5,1118.5C 2983.05,1118.46 2981.05,1117.79 2979.5,1116.5C 2983.5,1112.5 2987.5,1108.5 2991.5,1104.5C 2997.87,1098.13 3004.53,1092.13 3011.5,1086.5 Z"/></g>
<g><path style="opacity:1" fill="#d3a530" d="M 2816.5,1088.5 C 2832.09,1090.27 2847.75,1091.77 2863.5,1093C 2864.74,1093.23 2865.74,1093.73 2866.5,1094.5C 2862.17,1098.17 2858.17,1102.17 2854.5,1106.5C 2851.46,1109.55 2848.12,1112.21 2844.5,1114.5C 2828,1112.6 2811.33,1110.94 2794.5,1109.5C 2796.64,1106.94 2798.97,1104.61 2801.5,1102.5C 2806.5,1097.83 2811.5,1093.17 2816.5,1088.5 Z"/></g>
<g><path style="opacity:0.937" fill="#916d0f" d="M 1118.5,1056.5 C 1119.5,1071.32 1119.83,1086.32 1119.5,1101.5C 1112.5,1101.5 1105.5,1101.5 1098.5,1101.5C 1098.5,1118.5 1098.5,1135.5 1098.5,1152.5C 1097.5,1135.34 1097.17,1118.01 1097.5,1100.5C 1104.5,1100.5 1111.5,1100.5 1118.5,1100.5C 1118.5,1085.83 1118.5,1071.17 1118.5,1056.5 Z"/></g>
<g><path style="opacity:0.937" fill="#916d0f" d="M 1288.5,1056.5 C 1289.5,1071.32 1289.83,1086.32 1289.5,1101.5C 1282.5,1101.5 1275.5,1101.5 1268.5,1101.5C 1268.5,1118.5 1268.5,1135.5 1268.5,1152.5C 1267.5,1135.34 1267.17,1118.01 1267.5,1100.5C 1274.5,1100.5 1281.5,1100.5 1288.5,1100.5C 1288.5,1085.83 1288.5,1071.17 1288.5,1056.5 Z"/></g>
<g><path style="opacity:0.994" fill="#d7ab35" d="M 3210.5,1101.5 C 3222.9,1101.89 3235.24,1102.89 3247.5,1104.5C 3248.24,1109.15 3248.91,1113.81 3249.5,1118.5C 3246.79,1121.22 3243.79,1123.55 3240.5,1125.5C 3223.51,1124 3206.51,1122.67 3189.5,1121.5C 3195.47,1116.19 3201.14,1110.53 3206.5,1104.5C 3207.83,1103.5 3209.17,1102.5 3210.5,1101.5 Z"/></g>
<g><path style="opacity:0.998" fill="#deb129" d="M 3135.5,1097.5 C 3158.99,1100.21 3182.66,1102.54 3206.5,1104.5C 3201.14,1110.53 3195.47,1116.19 3189.5,1121.5C 3184.78,1126.23 3179.78,1130.56 3174.5,1134.5C 3157.49,1133.33 3140.49,1132 3123.5,1130.5C 3121.12,1125.04 3119.12,1119.38 3117.5,1113.5C 3123.8,1108.54 3129.8,1103.2 3135.5,1097.5 Z"/></g>
<g><path style="opacity:1" fill="#d9ab25" d="M 2729.5,1096.5 C 2753.51,1098.44 2777.51,1100.44 2801.5,1102.5C 2798.97,1104.61 2796.64,1106.94 2794.5,1109.5C 2788.13,1115.87 2781.47,1121.87 2774.5,1127.5C 2750.67,1125.43 2727.01,1123.1 2703.5,1120.5C 2711.86,1112.14 2720.53,1104.14 2729.5,1096.5 Z"/></g>
<g><path style="opacity:1" fill="#d3a530" d="M 2941.5,1099.5 C 2958.31,1101.06 2974.98,1102.72 2991.5,1104.5C 2987.5,1108.5 2983.5,1112.5 2979.5,1116.5C 2976.17,1119.5 2972.83,1122.5 2969.5,1125.5C 2953.02,1123.36 2936.36,1121.7 2919.5,1120.5C 2921.5,1118.17 2923.5,1115.83 2925.5,1113.5C 2930.54,1108.46 2935.87,1103.79 2941.5,1099.5 Z"/></g>
<g><path style="opacity:0.753" fill="#906c0f" d="M 2540.5,1044.5 C 2541.5,1067.33 2541.83,1090.33 2541.5,1113.5C 2523.83,1113.5 2506.17,1113.5 2488.5,1113.5C 2488.5,1102.17 2488.5,1090.83 2488.5,1079.5C 2486.17,1079.5 2483.83,1079.5 2481.5,1079.5C 2483.95,1078.53 2486.61,1078.19 2489.5,1078.5C 2489.5,1089.83 2489.5,1101.17 2489.5,1112.5C 2506.5,1112.5 2523.5,1112.5 2540.5,1112.5C 2540.5,1089.83 2540.5,1067.17 2540.5,1044.5 Z"/></g>
<g><path style="opacity:1" fill="#d9ab25" d="M 2854.5,1106.5 C 2878.01,1109.1 2901.67,1111.43 2925.5,1113.5C 2923.5,1115.83 2921.5,1118.17 2919.5,1120.5C 2912.53,1126.13 2905.87,1132.13 2899.5,1138.5C 2876.25,1136.01 2852.92,1133.84 2829.5,1132C 2828.94,1131.62 2828.61,1131.12 2828.5,1130.5C 2834.17,1125.5 2839.5,1120.17 2844.5,1114.5C 2848.12,1112.21 2851.46,1109.55 2854.5,1106.5 Z"/></g>
<g><path style="opacity:0.978" fill="#d3a530" d="M 3065.5,1110.5 C 3075.15,1111.41 3084.82,1112.07 3094.5,1112.5C 3088.85,1120.15 3082.85,1127.48 3076.5,1134.5C 3065.59,1133.01 3054.59,1132.01 3043.5,1131.5C 3045.83,1128.83 3048.17,1126.17 3050.5,1123.5C 3055.8,1119.54 3060.8,1115.21 3065.5,1110.5 Z"/></g>
<g><path style="opacity:0.997" fill="#d5a521" d="M 2703.5,1120.5 C 2727.01,1123.1 2750.67,1125.43 2774.5,1127.5C 2773.5,1128.83 2772.5,1130.17 2771.5,1131.5C 2762.2,1139.47 2753.2,1147.8 2744.5,1156.5C 2721.14,1155.11 2697.8,1153.28 2674.5,1151C 2675.74,1150.77 2676.74,1150.27 2677.5,1149.5C 2689.53,1144.77 2696.86,1136.1 2699.5,1123.5C 2700.83,1122.5 2702.17,1121.5 2703.5,1120.5 Z"/></g>
<g><path style="opacity:1" fill="#ce9e2c" d="M 2794.5,1109.5 C 2811.33,1110.94 2828,1112.6 2844.5,1114.5C 2839.5,1120.17 2834.17,1125.5 2828.5,1130.5C 2826.17,1132.5 2823.83,1134.5 2821.5,1136.5C 2820.74,1135.73 2819.74,1135.23 2818.5,1135C 2802.86,1133.45 2787.19,1132.28 2771.5,1131.5C 2772.5,1130.17 2773.5,1128.83 2774.5,1127.5C 2781.47,1121.87 2788.13,1115.87 2794.5,1109.5 Z"/></g>
<g><path style="opacity:1" fill="#d9ab25" d="M 2979.5,1116.5 C 2981.05,1117.79 2983.05,1118.46 2985.5,1118.5C 3007.14,1120.55 3028.81,1122.22 3050.5,1123.5C 3048.17,1126.17 3045.83,1128.83 3043.5,1131.5C 3036.87,1136.8 3030.54,1142.46 3024.5,1148.5C 3000.47,1146.83 2976.47,1144.83 2952.5,1142.5C 2957.86,1136.47 2963.53,1130.81 2969.5,1125.5C 2972.83,1122.5 2976.17,1119.5 2979.5,1116.5 Z"/></g>
<g><path style="opacity:1" fill="#d3a530" d="M 3189.5,1121.5 C 3206.51,1122.67 3223.51,1124 3240.5,1125.5C 3233.47,1133.53 3225.8,1140.87 3217.5,1147.5C 3216.74,1146.73 3215.74,1146.23 3214.5,1146C 3198.86,1144.44 3183.19,1143.27 3167.5,1142.5C 3169.83,1139.83 3172.17,1137.17 3174.5,1134.5C 3179.78,1130.56 3184.78,1126.23 3189.5,1121.5 Z"/></g>
<g><path style="opacity:1" fill="#ca9928" d="M 2771.5,1131.5 C 2787.19,1132.28 2802.86,1133.45 2818.5,1135C 2819.74,1135.23 2820.74,1135.73 2821.5,1136.5C 2813.81,1144.86 2805.81,1152.86 2797.5,1160.5C 2796.5,1161.17 2795.5,1161.83 2794.5,1162.5C 2778.08,1159.85 2761.41,1158.18 2744.5,1157.5C 2744.5,1157.17 2744.5,1156.83 2744.5,1156.5C 2753.2,1147.8 2762.2,1139.47 2771.5,1131.5 Z"/></g>
<g><path style="opacity:1" fill="#d5a521" d="M 2828.5,1130.5 C 2828.61,1131.12 2828.94,1131.62 2829.5,1132C 2852.92,1133.84 2876.25,1136.01 2899.5,1138.5C 2898.31,1139.27 2897.31,1140.27 2896.5,1141.5C 2887.47,1150.19 2878.47,1158.86 2869.5,1167.5C 2869.17,1167.5 2868.83,1167.5 2868.5,1167.5C 2846.16,1165.83 2823.83,1164 2801.5,1162C 2799.94,1161.79 2798.61,1161.29 2797.5,1160.5C 2805.81,1152.86 2813.81,1144.86 2821.5,1136.5C 2823.83,1134.5 2826.17,1132.5 2828.5,1130.5 Z"/></g>
<g><path style="opacity:0.982" fill="#cf9f2d" d="M 3043.5,1131.5 C 3054.59,1132.01 3065.59,1133.01 3076.5,1134.5C 3071.18,1141.81 3065.52,1148.81 3059.5,1155.5C 3046.81,1154.74 3034.14,1153.74 3021.5,1152.5C 3022.5,1151.17 3023.5,1149.83 3024.5,1148.5C 3030.54,1142.46 3036.87,1136.8 3043.5,1131.5 Z"/></g>
<g><path style="opacity:1" fill="#ce9e2c" d="M 2919.5,1120.5 C 2936.36,1121.7 2953.02,1123.36 2969.5,1125.5C 2963.53,1130.81 2957.86,1136.47 2952.5,1142.5C 2950.5,1144.17 2948.5,1145.83 2946.5,1147.5C 2946.39,1146.88 2946.06,1146.38 2945.5,1146C 2929.14,1144.66 2912.8,1143.16 2896.5,1141.5C 2897.31,1140.27 2898.31,1139.27 2899.5,1138.5C 2905.87,1132.13 2912.53,1126.13 2919.5,1120.5 Z"/></g>
<g><path style="opacity:1" fill="#ca9928" d="M 2896.5,1141.5 C 2912.8,1143.16 2929.14,1144.66 2945.5,1146C 2946.06,1146.38 2946.39,1146.88 2946.5,1147.5C 2938.14,1155.53 2929.81,1163.53 2921.5,1171.5C 2920.5,1172.17 2919.5,1172.83 2918.5,1173.5C 2918.08,1172.78 2917.42,1172.28 2916.5,1172C 2900.75,1170.77 2885.09,1169.27 2869.5,1167.5C 2878.47,1158.86 2887.47,1150.19 2896.5,1141.5 Z"/></g>
<g><path style="opacity:1" fill="#d5a521" d="M 2952.5,1142.5 C 2976.47,1144.83 3000.47,1146.83 3024.5,1148.5C 3023.5,1149.83 3022.5,1151.17 3021.5,1152.5C 3011.84,1160.83 3002.51,1169.49 2993.5,1178.5C 2993.17,1178.5 2992.83,1178.5 2992.5,1178.5C 2968.63,1176.76 2944.96,1174.43 2921.5,1171.5C 2929.81,1163.53 2938.14,1155.53 2946.5,1147.5C 2948.5,1145.83 2950.5,1144.17 2952.5,1142.5 Z"/></g>
<g><path style="opacity:0.997" fill="#d9ab25" d="M 3123.5,1130.5 C 3140.49,1132 3157.49,1133.33 3174.5,1134.5C 3172.17,1137.17 3169.83,1139.83 3167.5,1142.5C 3159.74,1149.05 3152.41,1156.05 3145.5,1163.5C 3143.5,1165.17 3141.5,1166.83 3139.5,1168.5C 3132.8,1156.4 3127.47,1143.73 3123.5,1130.5 Z"/></g>
<g><path style="opacity:0.997" fill="#d9ab25" d="M 3249.5,1118.5 C 3249.65,1133.85 3249.31,1149.18 3248.5,1164.5C 3247.84,1165.72 3247.17,1167.05 3246.5,1168.5C 3231.36,1167 3216.36,1165.34 3201.5,1163.5C 3207.14,1158.53 3212.47,1153.19 3217.5,1147.5C 3225.8,1140.87 3233.47,1133.53 3240.5,1125.5C 3243.79,1123.55 3246.79,1121.22 3249.5,1118.5 Z"/></g>
<g><path style="opacity:0.979" fill="#d1a01d" d="M 2671.5,1149.5 C 2673.5,1149.5 2675.5,1149.5 2677.5,1149.5C 2676.74,1150.27 2675.74,1150.77 2674.5,1151C 2697.8,1153.28 2721.14,1155.11 2744.5,1156.5C 2744.5,1156.83 2744.5,1157.17 2744.5,1157.5C 2735.84,1164.83 2727.51,1172.49 2719.5,1180.5C 2718.61,1181.11 2717.61,1181.44 2716.5,1181.5C 2713.57,1178.06 2711.23,1174.23 2709.5,1170C 2694.17,1171.93 2679.5,1169.6 2665.5,1163C 2664.12,1161.73 2663.12,1160.23 2662.5,1158.5C 2665.91,1155.76 2668.91,1152.76 2671.5,1149.5 Z"/></g>
<g><path style="opacity:0.92" fill="#c79525" d="M 2671.5,1149.5 C 2668.91,1152.76 2665.91,1155.76 2662.5,1158.5C 2661.17,1151.17 2664.17,1148.17 2671.5,1149.5 Z"/></g>
<g><path style="opacity:0.986" fill="#ca9828" d="M 3021.5,1152.5 C 3034.14,1153.74 3046.81,1154.74 3059.5,1155.5C 3052.87,1165.09 3045.54,1174.09 3037.5,1182.5C 3022.83,1181.23 3008.16,1179.89 2993.5,1178.5C 3002.51,1169.49 3011.84,1160.83 3021.5,1152.5 Z"/></g>
<g><path style="opacity:1" fill="#ce9e2c" d="M 3167.5,1142.5 C 3183.19,1143.27 3198.86,1144.44 3214.5,1146C 3215.74,1146.23 3216.74,1146.73 3217.5,1147.5C 3212.47,1153.19 3207.14,1158.53 3201.5,1163.5C 3199.5,1165.17 3197.5,1166.83 3195.5,1168.5C 3179.05,1166.12 3162.38,1164.46 3145.5,1163.5C 3152.41,1156.05 3159.74,1149.05 3167.5,1142.5 Z"/></g>
<g><path style="opacity:1" fill="#c59223" d="M 2744.5,1157.5 C 2761.41,1158.18 2778.08,1159.85 2794.5,1162.5C 2786.58,1170.08 2778.58,1177.75 2770.5,1185.5C 2753.68,1183.46 2736.68,1181.79 2719.5,1180.5C 2727.51,1172.49 2735.84,1164.83 2744.5,1157.5 Z"/></g>
<g><path style="opacity:0.753" fill="#8d6a0f" d="M 1483.5,1157.5 C 1483.57,1159.03 1482.91,1160.03 1481.5,1160.5C 1481.43,1158.97 1482.09,1157.97 1483.5,1157.5 Z"/></g>
<g><path style="opacity:0.753" fill="#8c690f" d="M 1911.5,1158.5 C 1912.91,1158.97 1913.57,1159.97 1913.5,1161.5C 1912.09,1161.03 1911.43,1160.03 1911.5,1158.5 Z"/></g>
<g><path style="opacity:1" fill="#d09f1c" d="M 2797.5,1160.5 C 2798.61,1161.29 2799.94,1161.79 2801.5,1162C 2823.83,1164 2846.16,1165.83 2868.5,1167.5C 2860.19,1175.14 2852.19,1183.14 2844.5,1191.5C 2840.88,1193.79 2837.54,1196.45 2834.5,1199.5C 2810.69,1197.32 2787.03,1194.99 2763.5,1192.5C 2765.53,1189.81 2767.86,1187.47 2770.5,1185.5C 2778.58,1177.75 2786.58,1170.08 2794.5,1162.5C 2795.5,1161.83 2796.5,1161.17 2797.5,1160.5 Z"/></g>
<g><path style="opacity:0.863" fill="#8f6b0f" d="M 1913.5,1161.5 C 1914.91,1161.97 1915.57,1162.97 1915.5,1164.5C 1914.09,1164.03 1913.43,1163.03 1913.5,1161.5 Z"/></g>
<g><path style="opacity:0.987" fill="#ca9928" d="M 3145.5,1163.5 C 3162.38,1164.46 3179.05,1166.12 3195.5,1168.5C 3187.19,1176.14 3179.19,1184.14 3171.5,1192.5C 3167.5,1195.83 3163.5,1199.17 3159.5,1202.5C 3152.43,1191.43 3145.77,1180.09 3139.5,1168.5C 3141.5,1166.83 3143.5,1165.17 3145.5,1163.5 Z"/></g>
<g><path style="opacity:0.996" fill="#987210" d="M 1399.5,1163.5 C 1401.59,1164.58 1402.92,1166.25 1403.5,1168.5C 1401.41,1167.42 1400.08,1165.75 1399.5,1163.5 Z"/></g>
<g><path style="opacity:0.863" fill="#8f6b0f" d="M 2448.5,1162.5 C 2449.91,1162.97 2450.57,1163.97 2450.5,1165.5C 2449.09,1165.03 2448.43,1164.03 2448.5,1162.5 Z"/></g>
<g><path style="opacity:0.992" fill="#d5a521" d="M 3201.5,1163.5 C 3216.36,1165.34 3231.36,1167 3246.5,1168.5C 3247.17,1167.05 3247.84,1165.72 3248.5,1164.5C 3247.45,1175.14 3246.79,1185.8 3246.5,1196.5C 3244.83,1197.83 3243.17,1199.17 3241.5,1200.5C 3220.08,1198.26 3198.58,1196.26 3177,1194.5C 3174.7,1194.45 3172.87,1193.79 3171.5,1192.5C 3179.19,1184.14 3187.19,1176.14 3195.5,1168.5C 3197.5,1166.83 3199.5,1165.17 3201.5,1163.5 Z"/></g>
<g><path style="opacity:0.996" fill="#9a7410" d="M 1039.5,1168.5 C 1039.26,1170.4 1038.26,1171.74 1036.5,1172.5C 1036.74,1170.6 1037.74,1169.26 1039.5,1168.5 Z"/></g>
<g><path style="opacity:0.996" fill="#9c7510" d="M 2169.5,1168.5 C 2169.26,1170.4 2168.26,1171.74 2166.5,1172.5C 2166.74,1170.6 2167.74,1169.26 2169.5,1168.5 Z"/></g>
<g><path style="opacity:1" fill="#c59223" d="M 2868.5,1167.5 C 2868.83,1167.5 2869.17,1167.5 2869.5,1167.5C 2885.09,1169.27 2900.75,1170.77 2916.5,1172C 2917.42,1172.28 2918.08,1172.78 2918.5,1173.5C 2910.54,1181.16 2902.54,1188.82 2894.5,1196.5C 2878.05,1194.12 2861.38,1192.46 2844.5,1191.5C 2852.19,1183.14 2860.19,1175.14 2868.5,1167.5 Z"/></g>
<g><path style="opacity:0.937" fill="#9b7410" d="M 1103.5,1168.5 C 1104.91,1168.97 1105.57,1169.97 1105.5,1171.5C 1104.09,1171.03 1103.43,1170.03 1103.5,1168.5 Z"/></g>
<g><path style="opacity:0.906" fill="#956f0f" d="M 1273.5,1168.5 C 1274.91,1168.97 1275.57,1169.97 1275.5,1171.5C 1274.09,1171.03 1273.43,1170.03 1273.5,1168.5 Z"/></g>
<g><path style="opacity:0.996" fill="#a87e12" d="M 1992.5,1166.5 C 1991.83,1169.17 1990.17,1170.83 1987.5,1171.5C 1988.83,1169.5 1990.5,1167.83 1992.5,1166.5 Z"/></g>
<g><path style="opacity:0.965" fill="#9d7610" d="M 1472.5,1171.5 C 1471.74,1173.26 1470.4,1174.26 1468.5,1174.5C 1469.26,1172.74 1470.6,1171.74 1472.5,1171.5 Z"/></g>
<g><path style="opacity:1" fill="#d09f1c" d="M 2921.5,1171.5 C 2944.96,1174.43 2968.63,1176.76 2992.5,1178.5C 2984.81,1186.86 2976.81,1194.86 2968.5,1202.5C 2965.83,1204.83 2963.17,1207.17 2960.5,1209.5C 2937.15,1208 2913.81,1206.17 2890.5,1204C 2889.58,1203.72 2888.92,1203.22 2888.5,1202.5C 2890.83,1200.83 2892.83,1198.83 2894.5,1196.5C 2902.54,1188.82 2910.54,1181.16 2918.5,1173.5C 2919.5,1172.83 2920.5,1172.17 2921.5,1171.5 Z"/></g>
<g><path style="opacity:0.984" fill="#9a7310" d="M 1986.5,1172.5 C 1986.03,1173.91 1985.03,1174.57 1983.5,1174.5C 1983.97,1173.09 1984.97,1172.43 1986.5,1172.5 Z"/></g>
<g><path style="opacity:0.965" fill="#997310" d="M 1035.5,1173.5 C 1034.74,1175.26 1033.4,1176.26 1031.5,1176.5C 1032.26,1174.74 1033.6,1173.74 1035.5,1173.5 Z"/></g>
<g><path style="opacity:0.965" fill="#9a7410" d="M 1205.5,1173.5 C 1204.74,1175.26 1203.4,1176.26 1201.5,1176.5C 1202.26,1174.74 1203.6,1173.74 1205.5,1173.5 Z"/></g>
<g><path style="opacity:0.984" fill="#9b7410" d="M 1983.5,1174.5 C 1983.03,1175.91 1982.03,1176.57 1980.5,1176.5C 1980.97,1175.09 1981.97,1174.43 1983.5,1174.5 Z"/></g>
<g><path style="opacity:0.984" fill="#9c7510" d="M 1599.5,1175.5 C 1599.03,1176.91 1598.03,1177.57 1596.5,1177.5C 1596.97,1176.09 1597.97,1175.43 1599.5,1175.5 Z"/></g>
<g><path style="opacity:0.984" fill="#9a7310" d="M 1031.5,1176.5 C 1031.03,1177.91 1030.03,1178.57 1028.5,1178.5C 1028.97,1177.09 1029.97,1176.43 1031.5,1176.5 Z"/></g>
<g><path style="opacity:0.984" fill="#9b7410" d="M 1201.5,1176.5 C 1201.03,1177.91 1200.03,1178.57 1198.5,1178.5C 1198.97,1177.09 1199.97,1176.43 1201.5,1176.5 Z"/></g>
<g><path style="opacity:0.984" fill="#997310" d="M 1323.5,1176.5 C 1323.03,1177.91 1322.03,1178.57 1320.5,1178.5C 1320.97,1177.09 1321.97,1176.43 1323.5,1176.5 Z"/></g>
<g><path style="opacity:0.987" fill="#c59223" d="M 2992.5,1178.5 C 2992.83,1178.5 2993.17,1178.5 2993.5,1178.5C 3008.16,1179.89 3022.83,1181.23 3037.5,1182.5C 3031.92,1191.08 3025.59,1199.08 3018.5,1206.5C 3001.87,1204.75 2985.21,1203.41 2968.5,1202.5C 2976.81,1194.86 2984.81,1186.86 2992.5,1178.5 Z"/></g>
<g><path style="opacity:0.937" fill="#a87e12" d="M 2398.5,1181.5 C 2399.04,1181.56 2399.38,1181.89 2399.5,1182.5C 2380.67,1183.83 2362,1183.83 2343.5,1182.5C 2362.01,1182.83 2380.34,1182.5 2398.5,1181.5 Z"/></g>
<g><path style="opacity:0.753" fill="#916d0f" d="M 1736.5,1182.5 C 1742.83,1182.5 1749.17,1182.5 1755.5,1182.5C 1755.83,1197.68 1755.5,1212.68 1754.5,1227.5C 1754.5,1212.83 1754.5,1198.17 1754.5,1183.5C 1748.31,1183.82 1742.31,1183.49 1736.5,1182.5 Z"/></g>
<g><path style="opacity:0.937" fill="#a77d11" d="M 2486.5,1182.5 C 2504.83,1182.5 2523.17,1182.5 2541.5,1182.5C 2541.83,1197.68 2541.5,1212.68 2540.5,1227.5C 2540.5,1212.83 2540.5,1198.17 2540.5,1183.5C 2522.33,1183.83 2504.33,1183.5 2486.5,1182.5 Z"/></g>
<g><path style="opacity:1" fill="#cd9a19" d="M 2763.5,1192.5 C 2787.03,1194.99 2810.69,1197.32 2834.5,1199.5C 2830.11,1204.89 2825.11,1209.56 2819.5,1213.5C 2796.82,1211.89 2774.15,1210.05 2751.5,1208C 2750.26,1207.77 2749.26,1207.27 2748.5,1206.5C 2753.47,1201.86 2758.47,1197.19 2763.5,1192.5 Z"/></g>
<g><path style="opacity:0.997" fill="#d09e1c" d="M 3171.5,1192.5 C 3172.87,1193.79 3174.7,1194.45 3177,1194.5C 3198.58,1196.26 3220.08,1198.26 3241.5,1200.5C 3229.83,1211.83 3218.17,1223.17 3206.5,1234.5C 3201.47,1239.19 3196.47,1243.86 3191.5,1248.5C 3190.17,1249.5 3188.83,1250.5 3187.5,1251.5C 3178.93,1234.68 3169.59,1218.34 3159.5,1202.5C 3163.5,1199.17 3167.5,1195.83 3171.5,1192.5 Z"/></g>
<g><path style="opacity:0.989" fill="#c08c1e" d="M 2719.5,1180.5 C 2736.68,1181.79 2753.68,1183.46 2770.5,1185.5C 2767.86,1187.47 2765.53,1189.81 2763.5,1192.5C 2758.47,1197.19 2753.47,1201.86 2748.5,1206.5C 2744.17,1210.5 2739.83,1214.5 2735.5,1218.5C 2732.57,1217.41 2730.41,1215.41 2729,1212.5C 2729.21,1200.31 2725.05,1189.98 2716.5,1181.5C 2717.61,1181.44 2718.61,1181.11 2719.5,1180.5 Z"/></g>
<g><path style="opacity:1" fill="#c08c1e" d="M 2844.5,1191.5 C 2861.38,1192.46 2878.05,1194.12 2894.5,1196.5C 2892.83,1198.83 2890.83,1200.83 2888.5,1202.5C 2882.83,1207.5 2877.5,1212.83 2872.5,1218.5C 2871.4,1219.6 2870.06,1220.27 2868.5,1220.5C 2851.53,1218.78 2834.53,1217.45 2817.5,1216.5C 2818.17,1215.5 2818.83,1214.5 2819.5,1213.5C 2825.11,1209.56 2830.11,1204.89 2834.5,1199.5C 2837.54,1196.45 2840.88,1193.79 2844.5,1191.5 Z"/></g>
<g><path style="opacity:0.965" fill="#926d0f" d="M 2026.5,1204.5 C 2028.33,1203.28 2029.33,1203.95 2029.5,1206.5C 2028.5,1205.83 2027.5,1205.17 2026.5,1204.5 Z"/></g>
<g><path style="opacity:1" fill="#cd9a19" d="M 2888.5,1202.5 C 2888.92,1203.22 2889.58,1203.72 2890.5,1204C 2913.81,1206.17 2937.15,1208 2960.5,1209.5C 2955.19,1214.47 2949.86,1219.47 2944.5,1224.5C 2920.49,1222.61 2896.49,1220.61 2872.5,1218.5C 2877.5,1212.83 2882.83,1207.5 2888.5,1202.5 Z"/></g>
<g><path style="opacity:0.996" fill="#9a7410" d="M 1513.5,1205.5 C 1515.4,1205.74 1516.74,1206.74 1517.5,1208.5C 1515.6,1208.26 1514.26,1207.26 1513.5,1205.5 Z"/></g>
<g><path style="opacity:0.996" fill="#9c7510" d="M 1885.5,1206.5 C 1887.25,1206.42 1888.25,1207.25 1888.5,1209C 1888.16,1210.03 1887.5,1210.53 1886.5,1210.5C 1887.47,1209.04 1887.14,1207.7 1885.5,1206.5 Z"/></g>
<g><path style="opacity:0.999" fill="#ca9616" d="M 2748.5,1206.5 C 2749.26,1207.27 2750.26,1207.77 2751.5,1208C 2774.15,1210.05 2796.82,1211.89 2819.5,1213.5C 2818.83,1214.5 2818.17,1215.5 2817.5,1216.5C 2811.14,1222.53 2804.81,1228.53 2798.5,1234.5C 2790.81,1241.86 2783.14,1249.19 2775.5,1256.5C 2772.22,1251.47 2768.55,1246.63 2764.5,1242C 2758.19,1240.92 2755.02,1237.09 2755,1230.5C 2754.12,1227.9 2752.62,1225.73 2750.5,1224C 2745.27,1222.47 2740.27,1220.64 2735.5,1218.5C 2739.83,1214.5 2744.17,1210.5 2748.5,1206.5 Z"/></g>
<g><path style="opacity:0.937" fill="#9b7410" d="M 1371.5,1207.5 C 1373.03,1207.43 1374.03,1208.09 1374.5,1209.5C 1372.97,1209.57 1371.97,1208.91 1371.5,1207.5 Z"/></g>
<g><path style="opacity:0.863" fill="#8e6a0f" d="M 2277.5,1207.5 C 2279.03,1207.43 2280.03,1208.09 2280.5,1209.5C 2278.97,1209.57 2277.97,1208.91 2277.5,1207.5 Z"/></g>
<g><path style="opacity:0.906" fill="#946f0f" d="M 1075.5,1210.5 C 1077.03,1210.43 1078.03,1211.09 1078.5,1212.5C 1076.97,1212.57 1075.97,1211.91 1075.5,1210.5 Z"/></g>
<g><path style="opacity:0.906" fill="#946f0f" d="M 1245.5,1210.5 C 1247.03,1210.43 1248.03,1211.09 1248.5,1212.5C 1246.97,1212.57 1245.97,1211.91 1245.5,1210.5 Z"/></g>
<g><path style="opacity:0.812" fill="#8e6a0e" d="M 1519.5,1210.5 C 1521.03,1210.43 1522.03,1211.09 1522.5,1212.5C 1520.97,1212.57 1519.97,1211.91 1519.5,1210.5 Z"/></g>
<g><path style="opacity:0.906" fill="#946f0f" d="M 2281.5,1210.5 C 2283.03,1210.43 2284.03,1211.09 2284.5,1212.5C 2282.97,1212.57 2281.97,1211.91 2281.5,1210.5 Z"/></g>
<g><path style="opacity:0.753" fill="#8c690f" d="M 1377.5,1211.5 C 1379.03,1211.43 1380.03,1212.09 1380.5,1213.5C 1378.97,1213.57 1377.97,1212.91 1377.5,1211.5 Z"/></g>
<g><path style="opacity:0.863" fill="#8e6b0f" d="M 1886.5,1210.5 C 1886.57,1212.03 1885.91,1213.03 1884.5,1213.5C 1884.43,1211.97 1885.09,1210.97 1886.5,1210.5 Z"/></g>
<g><path style="opacity:0.937" fill="#9d7510" d="M 2036.5,1211.5 C 2038.03,1211.43 2039.03,1212.09 2039.5,1213.5C 2037.97,1213.57 2036.97,1212.91 2036.5,1211.5 Z"/></g>
<g><path style="opacity:0.906" fill="#977110" d="M 1078.5,1212.5 C 1080.03,1212.43 1081.03,1213.09 1081.5,1214.5C 1079.97,1214.57 1078.97,1213.91 1078.5,1212.5 Z"/></g>
<g><path style="opacity:0.906" fill="#977110" d="M 1248.5,1212.5 C 1250.03,1212.43 1251.03,1213.09 1251.5,1214.5C 1249.97,1214.57 1248.97,1213.91 1248.5,1212.5 Z"/></g>
<g><path style="opacity:0.812" fill="#8e6b0f" d="M 1522.5,1212.5 C 1524.03,1212.43 1525.03,1213.09 1525.5,1214.5C 1523.97,1214.57 1522.97,1213.91 1522.5,1212.5 Z"/></g>
<g><path style="opacity:1" fill="#c08c1e" d="M 2968.5,1202.5 C 2985.21,1203.41 3001.87,1204.75 3018.5,1206.5C 3016.18,1210.15 3013.52,1213.48 3010.5,1216.5C 3004.2,1221.46 2998.2,1226.8 2992.5,1232.5C 2992.39,1231.88 2992.06,1231.38 2991.5,1231C 2975.41,1229.83 2959.41,1228.33 2943.5,1226.5C 2943.83,1225.83 2944.17,1225.17 2944.5,1224.5C 2949.86,1219.47 2955.19,1214.47 2960.5,1209.5C 2963.17,1207.17 2965.83,1204.83 2968.5,1202.5 Z"/></g>
<g><path style="opacity:0.97" fill="#e8c32f" d="M 3095.5,1210.5 C 3086.14,1219.53 3076.81,1228.53 3067.5,1237.5C 3064.77,1240.24 3061.77,1242.57 3058.5,1244.5C 3069.79,1229.87 3081.46,1215.54 3093.5,1201.5C 3094.49,1204.44 3095.16,1207.44 3095.5,1210.5 Z"/></g>
<g><path style="opacity:0.977" fill="#e3c03b" d="M 3095.5,1210.5 C 3097.85,1221.2 3101.85,1231.2 3107.5,1240.5C 3094.19,1239.17 3080.86,1238.17 3067.5,1237.5C 3076.81,1228.53 3086.14,1219.53 3095.5,1210.5 Z"/></g>
<g><path style="opacity:0.812" fill="#8c690e" d="M 1883.5,1214.5 C 1883.57,1216.03 1882.91,1217.03 1881.5,1217.5C 1881.43,1215.97 1882.09,1214.97 1883.5,1214.5 Z"/></g>
<g><path style="opacity:1" fill="#bd871b" d="M 2817.5,1216.5 C 2834.53,1217.45 2851.53,1218.78 2868.5,1220.5C 2862.5,1227.17 2856.17,1233.5 2849.5,1239.5C 2832.68,1237.46 2815.68,1235.79 2798.5,1234.5C 2804.81,1228.53 2811.14,1222.53 2817.5,1216.5 Z"/></g>
<g><path style="opacity:1" fill="#ca9716" d="M 2872.5,1218.5 C 2896.49,1220.61 2920.49,1222.61 2944.5,1224.5C 2944.17,1225.17 2943.83,1225.83 2943.5,1226.5C 2934.83,1234.17 2926.17,1241.83 2917.5,1249.5C 2893.69,1247.32 2870.03,1244.99 2846.5,1242.5C 2847.17,1241.17 2848.17,1240.17 2849.5,1239.5C 2856.17,1233.5 2862.5,1227.17 2868.5,1220.5C 2870.06,1220.27 2871.4,1219.6 2872.5,1218.5 Z"/></g>
<g><path style="opacity:0.991" fill="#c38f21" d="M 3246.5,1196.5 C 3245.75,1210.16 3245.08,1223.83 3244.5,1237.5C 3231.79,1236.94 3219.13,1235.94 3206.5,1234.5C 3218.17,1223.17 3229.83,1211.83 3241.5,1200.5C 3243.17,1199.17 3244.83,1197.83 3246.5,1196.5 Z"/></g>
<g><path style="opacity:1" fill="#bc861b" d="M 2943.5,1226.5 C 2959.41,1228.33 2975.41,1229.83 2991.5,1231C 2992.06,1231.38 2992.39,1231.88 2992.5,1232.5C 2982.49,1242.51 2972.16,1252.17 2961.5,1261.5C 2945.08,1258.88 2928.41,1257.22 2911.5,1256.5C 2913.5,1254.17 2915.5,1251.83 2917.5,1249.5C 2926.17,1241.83 2934.83,1234.17 2943.5,1226.5 Z"/></g>
<g><path style="opacity:0.99" fill="#bf8b1e" d="M 3206.5,1234.5 C 3219.13,1235.94 3231.79,1236.94 3244.5,1237.5C 3243.95,1242.48 3243.61,1247.48 3243.5,1252.5C 3226.16,1251.28 3208.82,1249.94 3191.5,1248.5C 3196.47,1243.86 3201.47,1239.19 3206.5,1234.5 Z"/></g>
<g><path style="opacity:0.989" fill="#e6c041" d="M 3067.5,1237.5 C 3080.86,1238.17 3094.19,1239.17 3107.5,1240.5C 3108.85,1243.19 3110.18,1245.86 3111.5,1248.5C 3104.19,1255.47 3096.86,1262.47 3089.5,1269.5C 3074.04,1267.24 3058.37,1265.57 3042.5,1264.5C 3047.83,1257.83 3053.17,1251.17 3058.5,1244.5C 3061.77,1242.57 3064.77,1240.24 3067.5,1237.5 Z"/></g>
<g><path style="opacity:0.965" fill="#9c7510" d="M 868.5,1240.5 C 867.5,1243.5 865.5,1245.5 862.5,1246.5C 864.167,1244.17 866.167,1242.17 868.5,1240.5 Z"/></g>
<g><path style="opacity:0.976" fill="#b88117" d="M 2798.5,1234.5 C 2815.68,1235.79 2832.68,1237.46 2849.5,1239.5C 2848.17,1240.17 2847.17,1241.17 2846.5,1242.5C 2833.5,1254.16 2820.84,1266.16 2808.5,1278.5C 2806.83,1279.83 2805.17,1281.17 2803.5,1282.5C 2801.13,1279.44 2799.13,1276.11 2797.5,1272.5C 2799.64,1269.5 2801.64,1266.34 2803.5,1263C 2803.24,1261.74 2802.57,1260.74 2801.5,1260C 2798.69,1259.01 2795.86,1258.17 2793,1257.5C 2788.32,1259.24 2783.49,1259.74 2778.5,1259C 2777.06,1258.62 2776.06,1257.79 2775.5,1256.5C 2783.14,1249.19 2790.81,1241.86 2798.5,1234.5 Z"/></g>
<g><path style="opacity:0.987" fill="#bc861b" d="M 3191.5,1248.5 C 3208.82,1249.94 3226.16,1251.28 3243.5,1252.5C 3243.67,1253.49 3243.34,1254.16 3242.5,1254.5C 3242.57,1254.06 3242.4,1253.73 3242,1253.5C 3228.63,1266.37 3215.13,1279.04 3201.5,1291.5C 3198.62,1277.52 3193.95,1264.19 3187.5,1251.5C 3188.83,1250.5 3190.17,1249.5 3191.5,1248.5 Z"/></g>
<g><path style="opacity:0.937" fill="#9e7711" d="M 846.5,1252.5 C 845.081,1253.45 843.415,1253.78 841.5,1253.5C 841.5,1268.17 841.5,1282.83 841.5,1297.5C 844.167,1297.5 846.833,1297.5 849.5,1297.5C 846.713,1298.48 843.713,1298.81 840.5,1298.5C 840.5,1283.17 840.5,1267.83 840.5,1252.5C 842.5,1252.5 844.5,1252.5 846.5,1252.5 Z"/></g>
<g><path style="opacity:1" fill="#cc9915" d="M 1091.5,1260.5 C 1091.74,1262.4 1092.74,1263.74 1094.5,1264.5C 1100.11,1276.17 1097.78,1286 1087.5,1294C 1076.59,1300.13 1065.92,1299.97 1055.5,1293.5C 1054.74,1291.74 1053.4,1290.74 1051.5,1290.5C 1047.16,1286.37 1045.16,1281.2 1045.5,1275C 1045.97,1263.85 1051.64,1256.85 1062.5,1254C 1073.42,1251.15 1083.09,1253.31 1091.5,1260.5 Z"/></g>
<g><path style="opacity:1" fill="#b78016" d="M 2911.5,1256.5 C 2928.41,1257.22 2945.08,1258.88 2961.5,1261.5C 2951.53,1270.81 2941.86,1280.47 2932.5,1290.5C 2931.83,1290.83 2931.17,1291.17 2930.5,1291.5C 2913.69,1289.35 2896.69,1287.68 2879.5,1286.5C 2879.5,1286.17 2879.5,1285.83 2879.5,1285.5C 2890.17,1275.83 2900.83,1266.17 2911.5,1256.5 Z"/></g>
<g><path style="opacity:0.996" fill="#997210" d="M 1091.5,1260.5 C 1093.26,1261.26 1094.26,1262.6 1094.5,1264.5C 1092.74,1263.74 1091.74,1262.4 1091.5,1260.5 Z"/></g>
<g><path style="opacity:1" fill="#c69112" d="M 2846.5,1242.5 C 2870.03,1244.99 2893.69,1247.32 2917.5,1249.5C 2915.5,1251.83 2913.5,1254.17 2911.5,1256.5C 2900.83,1266.17 2890.17,1275.83 2879.5,1285.5C 2855.62,1283.82 2831.95,1281.48 2808.5,1278.5C 2820.84,1266.16 2833.5,1254.16 2846.5,1242.5 Z"/></g>
<g><path style="opacity:0.99" fill="#e1b83f" d="M 3042.5,1264.5 C 3058.37,1265.57 3074.04,1267.24 3089.5,1269.5C 3088.69,1270.73 3087.69,1271.73 3086.5,1272.5C 3086.17,1272.5 3085.83,1272.5 3085.5,1272.5C 3069.96,1271.82 3054.63,1270.48 3039.5,1268.5C 3040.5,1267.17 3041.5,1265.83 3042.5,1264.5 Z"/></g>
<g><path style="opacity:0.984" fill="#e9c034" d="M 3111.5,1248.5 C 3117.84,1257.17 3123.17,1266.51 3127.5,1276.5C 3113.64,1275.64 3099.98,1274.3 3086.5,1272.5C 3087.69,1271.73 3088.69,1270.73 3089.5,1269.5C 3096.86,1262.47 3104.19,1255.47 3111.5,1248.5 Z"/></g>
<g><path style="opacity:0.983" fill="#dcb23a" d="M 3039.5,1268.5 C 3054.63,1270.48 3069.96,1271.82 3085.5,1272.5C 3083.83,1274.5 3082.17,1276.5 3080.5,1278.5C 3080.17,1278.5 3079.83,1278.5 3079.5,1278.5C 3064.88,1276.87 3050.21,1275.53 3035.5,1274.5C 3036.45,1272.22 3037.78,1270.22 3039.5,1268.5 Z"/></g>
<g><path style="opacity:0.992" fill="#e3b82e" d="M 3085.5,1272.5 C 3085.83,1272.5 3086.17,1272.5 3086.5,1272.5C 3099.98,1274.3 3113.64,1275.64 3127.5,1276.5C 3129.01,1278.18 3130.01,1280.18 3130.5,1282.5C 3129.9,1283.14 3129.07,1283.47 3128,1283.5C 3112,1282.03 3096.17,1280.37 3080.5,1278.5C 3082.17,1276.5 3083.83,1274.5 3085.5,1272.5 Z"/></g>
<g><path style="opacity:0.998" fill="#c69213" d="M 3010.5,1216.5 C 2991.33,1241 2973.33,1266.34 2956.5,1292.5C 2948.55,1291.41 2940.55,1290.75 2932.5,1290.5C 2941.86,1280.47 2951.53,1270.81 2961.5,1261.5C 2972.16,1252.17 2982.49,1242.51 2992.5,1232.5C 2998.2,1226.8 3004.2,1221.46 3010.5,1216.5 Z"/></g>
<g><path style="opacity:0.983" fill="#d7ab35" d="M 3035.5,1274.5 C 3050.21,1275.53 3064.88,1276.87 3079.5,1278.5C 3078.17,1280.5 3076.5,1282.17 3074.5,1283.5C 3060.38,1281.46 3046.04,1280.12 3031.5,1279.5C 3032.12,1277.25 3033.46,1275.58 3035.5,1274.5 Z"/></g>
<g><path style="opacity:0.99" fill="#c48d0f" d="M 2808.5,1278.5 C 2831.95,1281.48 2855.62,1283.82 2879.5,1285.5C 2879.5,1285.83 2879.5,1286.17 2879.5,1286.5C 2864.84,1299.83 2850.5,1313.5 2836.5,1327.5C 2832.83,1330.83 2829.17,1334.17 2825.5,1337.5C 2822.02,1332.57 2818.52,1327.57 2815,1322.5C 2813.44,1315.59 2811.27,1308.92 2808.5,1302.5C 2810.39,1300.09 2812.56,1297.75 2815,1295.5C 2815.67,1294.17 2815.67,1292.83 2815,1291.5C 2812.08,1289.29 2808.91,1287.45 2805.5,1286C 2804.18,1285.18 2803.51,1284.02 2803.5,1282.5C 2805.17,1281.17 2806.83,1279.83 2808.5,1278.5 Z"/></g>
<g><path style="opacity:0.995" fill="#deb129" d="M 3079.5,1278.5 C 3079.83,1278.5 3080.17,1278.5 3080.5,1278.5C 3096.17,1280.37 3112,1282.03 3128,1283.5C 3129.07,1283.47 3129.9,1283.14 3130.5,1282.5C 3131.87,1284.94 3132.87,1287.6 3133.5,1290.5C 3132.74,1290.92 3131.9,1291.26 3131,1291.5C 3111.55,1289.31 3092.05,1287.64 3072.5,1286.5C 3073.17,1285.5 3073.83,1284.5 3074.5,1283.5C 3076.5,1282.17 3078.17,1280.5 3079.5,1278.5 Z"/></g>
<g><path style="opacity:0.989" fill="#d0a12e" d="M 3031.5,1279.5 C 3046.04,1280.12 3060.38,1281.46 3074.5,1283.5C 3073.83,1284.5 3073.17,1285.5 3072.5,1286.5C 3069.55,1288.12 3066.88,1290.12 3064.5,1292.5C 3051.2,1291.14 3037.86,1290.14 3024.5,1289.5C 3026.85,1286.13 3029.18,1282.8 3031.5,1279.5 Z"/></g>
<g><path style="opacity:0.986" fill="#ca9828" d="M 3024.5,1289.5 C 3037.86,1290.14 3051.2,1291.14 3064.5,1292.5C 3063.17,1294.17 3061.83,1295.83 3060.5,1297.5C 3059.5,1298.17 3058.5,1298.83 3057.5,1299.5C 3056.39,1298.71 3055.06,1298.21 3053.5,1298C 3042.51,1297 3031.51,1296.17 3020.5,1295.5C 3021.83,1293.5 3023.17,1291.5 3024.5,1289.5 Z"/></g>
<g><path style="opacity:0.996" fill="#9b7410" d="M 1051.5,1290.5 C 1053.4,1290.74 1054.74,1291.74 1055.5,1293.5C 1053.6,1293.26 1052.26,1292.26 1051.5,1290.5 Z"/></g>
<g><path style="opacity:0.99" fill="#c48d0f" d="M 2932.5,1290.5 C 2940.55,1290.75 2948.55,1291.41 2956.5,1292.5C 2946.37,1309.76 2937.04,1327.42 2928.5,1345.5C 2927.67,1344.25 2926.33,1343.59 2924.5,1343.5C 2909.84,1342.06 2895.17,1340.72 2880.5,1339.5C 2882.17,1337.5 2883.83,1335.5 2885.5,1333.5C 2900.5,1319.5 2915.5,1305.5 2930.5,1291.5C 2931.17,1291.17 2931.83,1290.83 2932.5,1290.5 Z"/></g>
<g><path style="opacity:0.995" fill="#d6a722" d="M 3072.5,1286.5 C 3092.05,1287.64 3111.55,1289.31 3131,1291.5C 3131.9,1291.26 3132.74,1290.92 3133.5,1290.5C 3134.67,1294.04 3135.34,1297.71 3135.5,1301.5C 3134.17,1302.5 3132.83,1303.5 3131.5,1304.5C 3109.16,1302.83 3086.83,1301 3064.5,1299C 3062.94,1298.79 3061.61,1298.29 3060.5,1297.5C 3061.83,1295.83 3063.17,1294.17 3064.5,1292.5C 3066.88,1290.12 3069.55,1288.12 3072.5,1286.5 Z"/></g>
<g><path style="opacity:0.984" fill="#c59223" d="M 3020.5,1295.5 C 3031.51,1296.17 3042.51,1297 3053.5,1298C 3055.06,1298.21 3056.39,1298.71 3057.5,1299.5C 3056.17,1301.5 3054.5,1303.17 3052.5,1304.5C 3041,1302.9 3029.33,1301.57 3017.5,1300.5C 3018.75,1299 3019.75,1297.33 3020.5,1295.5 Z"/></g>
<g><path style="opacity:0.999" fill="#c69213" d="M 3242.5,1254.5 C 3241.87,1264.29 3240.37,1273.96 3238,1283.5C 3233.39,1294.38 3228.56,1305.04 3223.5,1315.5C 3217.49,1314.89 3211.49,1314.23 3205.5,1313.5C 3204.61,1306.19 3203.28,1298.86 3201.5,1291.5C 3215.13,1279.04 3228.63,1266.37 3242,1253.5C 3242.4,1253.73 3242.57,1254.06 3242.5,1254.5 Z"/></g>
<g><path style="opacity:0.753" fill="#906c0f" d="M 1868.5,1257.5 C 1868.5,1270.83 1868.5,1284.17 1868.5,1297.5C 1885.5,1297.5 1902.5,1297.5 1919.5,1297.5C 1919.17,1285.32 1919.5,1273.32 1920.5,1261.5C 1920.5,1273.83 1920.5,1286.17 1920.5,1298.5C 1902.83,1298.5 1885.17,1298.5 1867.5,1298.5C 1867.17,1284.66 1867.5,1270.99 1868.5,1257.5 Z"/></g>
<g><path style="opacity:1" fill="#d09f1c" d="M 3060.5,1297.5 C 3061.61,1298.29 3062.94,1298.79 3064.5,1299C 3086.83,1301 3109.16,1302.83 3131.5,1304.5C 3129.5,1307.17 3127.17,1309.5 3124.5,1311.5C 3100.43,1310.05 3076.43,1308.05 3052.5,1305.5C 3052.5,1305.17 3052.5,1304.83 3052.5,1304.5C 3054.5,1303.17 3056.17,1301.5 3057.5,1299.5C 3058.5,1298.83 3059.5,1298.17 3060.5,1297.5 Z"/></g>
<g><path style="opacity:0.964" fill="#be891d" d="M 3017.5,1300.5 C 3029.33,1301.57 3041,1302.9 3052.5,1304.5C 3052.5,1304.83 3052.5,1305.17 3052.5,1305.5C 3048.88,1307.45 3045.88,1310.12 3043.5,1313.5C 3040.5,1316.17 3037.5,1318.83 3034.5,1321.5C 3027.82,1315.82 3021.82,1309.48 3016.5,1302.5C 3016.86,1301.82 3017.2,1301.15 3017.5,1300.5 Z"/></g>
<g><path style="opacity:1" fill="#b47b12" d="M 2879.5,1286.5 C 2896.69,1287.68 2913.69,1289.35 2930.5,1291.5C 2915.5,1305.5 2900.5,1319.5 2885.5,1333.5C 2869.91,1331.73 2854.25,1330.23 2838.5,1329C 2837.58,1328.72 2836.92,1328.22 2836.5,1327.5C 2850.5,1313.5 2864.84,1299.83 2879.5,1286.5 Z"/></g>
<g><path style="opacity:1" fill="#cb9817" d="M 3052.5,1305.5 C 3076.43,1308.05 3100.43,1310.05 3124.5,1311.5C 3121.79,1315.21 3118.46,1318.21 3114.5,1320.5C 3091.48,1318.94 3068.48,1317.11 3045.5,1315C 3044.58,1314.72 3043.92,1314.22 3043.5,1313.5C 3045.88,1310.12 3048.88,1307.45 3052.5,1305.5 Z"/></g>
<g><path style="opacity:0.98" fill="#c38d0f" d="M 3205.5,1313.5 C 3211.49,1314.23 3217.49,1314.89 3223.5,1315.5C 3221.81,1321.06 3221.31,1326.72 3222,1332.5C 3223.64,1336.3 3226.14,1339.3 3229.5,1341.5C 3222.79,1347.84 3216.12,1354.18 3209.5,1360.5C 3202.83,1366.5 3196.17,1372.5 3189.5,1378.5C 3200.62,1358.34 3205.96,1336.67 3205.5,1313.5 Z"/></g>
<g><path style="opacity:0.979" fill="#be891d" d="M 3135.5,1301.5 C 3136.98,1309.42 3136.31,1317.08 3133.5,1324.5C 3126.84,1323.77 3120.18,1323.11 3113.5,1322.5C 3113.83,1321.83 3114.17,1321.17 3114.5,1320.5C 3118.46,1318.21 3121.79,1315.21 3124.5,1311.5C 3127.17,1309.5 3129.5,1307.17 3131.5,1304.5C 3132.83,1303.5 3134.17,1302.5 3135.5,1301.5 Z"/></g>
<g><path style="opacity:0.992" fill="#c48f10" d="M 3043.5,1313.5 C 3043.92,1314.22 3044.58,1314.72 3045.5,1315C 3068.48,1317.11 3091.48,1318.94 3114.5,1320.5C 3114.17,1321.17 3113.83,1321.83 3113.5,1322.5C 3106.8,1329.2 3099.8,1335.54 3092.5,1341.5C 3078.85,1339.43 3065.02,1337.76 3051,1336.5C 3049.97,1336.84 3049.47,1337.5 3049.5,1338.5C 3044.16,1333.16 3039.16,1327.49 3034.5,1321.5C 3037.5,1318.83 3040.5,1316.17 3043.5,1313.5 Z"/></g>
<g><path style="opacity:0.993" fill="#b77e11" d="M 2836.5,1327.5 C 2836.92,1328.22 2837.58,1328.72 2838.5,1329C 2854.25,1330.23 2869.91,1331.73 2885.5,1333.5C 2883.83,1335.5 2882.17,1337.5 2880.5,1339.5C 2872.2,1346.46 2864.2,1353.8 2856.5,1361.5C 2845.91,1360.17 2835.25,1359.17 2824.5,1358.5C 2827.66,1351.58 2827.99,1344.58 2825.5,1337.5C 2829.17,1334.17 2832.83,1330.83 2836.5,1327.5 Z"/></g>
<g><path style="opacity:0.975" fill="#b67d13" d="M 3113.5,1322.5 C 3120.18,1323.11 3126.84,1323.77 3133.5,1324.5C 3130.46,1334.92 3125.13,1343.92 3117.5,1351.5C 3106.95,1351.21 3096.62,1350.21 3086.5,1348.5C 3088.5,1346.17 3090.5,1343.83 3092.5,1341.5C 3099.8,1335.54 3106.8,1329.2 3113.5,1322.5 Z"/></g>
<g><path style="opacity:0.987" fill="#c9930f" d="M 3092.5,1341.5 C 3090.5,1343.83 3088.5,1346.17 3086.5,1348.5C 3083.81,1350.86 3081.14,1353.2 3078.5,1355.5C 3075.17,1358.5 3071.83,1361.5 3068.5,1364.5C 3062.2,1355.86 3055.87,1347.19 3049.5,1338.5C 3049.47,1337.5 3049.97,1336.84 3051,1336.5C 3065.02,1337.76 3078.85,1339.43 3092.5,1341.5 Z"/></g>
<g><path style="opacity:0.952" fill="#b47b11" d="M 3229.5,1341.5 C 3237.77,1342.95 3246.1,1344.12 3254.5,1345C 3249.34,1350.5 3243.34,1354.83 3236.5,1358C 3234.63,1359.7 3232.96,1361.54 3231.5,1363.5C 3223.95,1363.09 3216.62,1362.09 3209.5,1360.5C 3216.12,1354.18 3222.79,1347.84 3229.5,1341.5 Z"/></g>
<g><path style="opacity:0.94" fill="#b87f12" d="M 2996.5,1358.5 C 2985.83,1368.17 2975.17,1377.83 2964.5,1387.5C 2967.73,1371.65 2973.23,1356.65 2981,1342.5C 2986.37,1347.7 2991.54,1353.04 2996.5,1358.5 Z"/></g>
<g><path style="opacity:0.978" fill="#bf8612" d="M 3086.5,1348.5 C 3096.62,1350.21 3106.95,1351.21 3117.5,1351.5C 3115.06,1354.73 3112.39,1357.73 3109.5,1360.5C 3102.88,1359.61 3096.21,1358.95 3089.5,1358.5C 3085.51,1358.24 3081.84,1357.24 3078.5,1355.5C 3081.14,1353.2 3083.81,1350.86 3086.5,1348.5 Z"/></g>
<g><path style="opacity:0.997" fill="#c8920f" d="M 2880.5,1339.5 C 2895.17,1340.72 2909.84,1342.06 2924.5,1343.5C 2926.33,1343.59 2927.67,1344.25 2928.5,1345.5C 2923.77,1357.35 2919.44,1369.35 2915.5,1381.5C 2912.5,1384.17 2909.5,1386.83 2906.5,1389.5C 2883.02,1386.76 2859.35,1384.42 2835.5,1382.5C 2842.19,1375.14 2849.19,1368.14 2856.5,1361.5C 2864.2,1353.8 2872.2,1346.46 2880.5,1339.5 Z"/></g>
<g><path style="opacity:0.982" fill="#c58c13" d="M 3078.5,1355.5 C 3081.84,1357.24 3085.51,1358.24 3089.5,1358.5C 3096.21,1358.95 3102.88,1359.61 3109.5,1360.5C 3107.88,1363.78 3105.55,1366.45 3102.5,1368.5C 3091.5,1367.44 3080.5,1366.44 3069.5,1365.5C 3068.83,1365.5 3068.5,1365.17 3068.5,1364.5C 3071.83,1361.5 3075.17,1358.5 3078.5,1355.5 Z"/></g>
<g><path style="opacity:0.981" fill="#bb8212" d="M 2824.5,1358.5 C 2835.25,1359.17 2845.91,1360.17 2856.5,1361.5C 2849.19,1368.14 2842.19,1375.14 2835.5,1382.5C 2834.51,1382.33 2833.84,1382.66 2833.5,1383.5C 2830.91,1382.75 2829.08,1381.08 2828,1378.5C 2825.77,1372.03 2824.6,1365.36 2824.5,1358.5 Z"/></g>
<g><path style="opacity:0.976" fill="#b87f12" d="M 3209.5,1360.5 C 3216.62,1362.09 3223.95,1363.09 3231.5,1363.5C 3226.81,1371.57 3223.47,1380.24 3221.5,1389.5C 3223.16,1392.16 3224.82,1394.83 3226.5,1397.5C 3222.5,1401.17 3218.5,1404.83 3214.5,1408.5C 3199.98,1407.65 3185.64,1406.32 3171.5,1404.5C 3177.92,1396.09 3183.92,1387.42 3189.5,1378.5C 3196.17,1372.5 3202.83,1366.5 3209.5,1360.5 Z"/></g>
<g><path style="opacity:1" fill="#cd9a16" d="M 892.5,1362.5 C 899.906,1362.15 907.239,1362.65 914.5,1364C 919.284,1366.45 923.117,1369.95 926,1374.5C 937.557,1416.56 948.724,1458.73 959.5,1501C 959.415,1502.11 959.081,1503.11 958.5,1504C 949.814,1504.83 941.147,1504.67 932.5,1503.5C 928.866,1491.3 925.699,1478.96 923,1466.5C 908.896,1465.18 894.73,1465.18 880.5,1466.5C 877.319,1478.89 873.985,1491.23 870.5,1503.5C 861.607,1504.82 852.774,1504.82 844,1503.5C 853.708,1461.34 864.375,1419.34 876,1377.5C 879.198,1369.79 884.698,1364.79 892.5,1362.5 Z M 917.5,1442.5 C 907.013,1443.49 896.346,1443.83 885.5,1443.5C 890.481,1424.24 895.147,1404.91 899.5,1385.5C 901.451,1385.23 902.951,1385.89 904,1387.5C 908.353,1405.91 912.853,1424.24 917.5,1442.5 Z"/></g>
<g><path style="opacity:1" fill="#cd9a16" d="M 1257.5,1362.5 C 1264.91,1362.15 1272.24,1362.65 1279.5,1364C 1284.28,1366.45 1288.12,1369.95 1291,1374.5C 1302.56,1416.56 1313.72,1458.73 1324.5,1501C 1324.41,1502.11 1324.08,1503.11 1323.5,1504C 1314.81,1504.83 1306.15,1504.67 1297.5,1503.5C 1293.87,1491.3 1290.7,1478.96 1288,1466.5C 1273.9,1465.18 1259.73,1465.18 1245.5,1466.5C 1242.32,1478.89 1238.99,1491.23 1235.5,1503.5C 1226.61,1504.82 1217.77,1504.82 1209,1503.5C 1218.71,1461.34 1229.37,1419.34 1241,1377.5C 1244.2,1369.79 1249.7,1364.79 1257.5,1362.5 Z M 1282.5,1442.5 C 1272.01,1443.49 1261.35,1443.83 1250.5,1443.5C 1255.48,1424.24 1260.15,1404.91 1264.5,1385.5C 1266.45,1385.23 1267.95,1385.89 1269,1387.5C 1273.35,1405.91 1277.85,1424.24 1282.5,1442.5 Z"/></g>
<g><path style="opacity:1" fill="#ce9b16" d="M 1564.5,1375.5 C 1564.74,1377.4 1565.74,1378.74 1567.5,1379.5C 1571.08,1383.37 1573.25,1388.03 1574,1393.5C 1575.82,1404.44 1574.16,1414.77 1569,1424.5C 1566.08,1428.09 1562.58,1430.92 1558.5,1433C 1562.46,1435.14 1565.8,1437.97 1568.5,1441.5C 1568.43,1443.03 1569.09,1444.03 1570.5,1444.5C 1573.05,1447.61 1574.55,1451.28 1575,1455.5C 1579.04,1479.28 1569.87,1495.11 1547.5,1503C 1531,1506.32 1514.33,1507.32 1497.5,1506C 1491.15,1505.94 1485.15,1504.78 1479.5,1502.5C 1479.03,1501.09 1478.03,1500.43 1476.5,1500.5C 1475.34,1456.57 1475.17,1412.57 1476,1368.5C 1477.17,1367.33 1478.33,1366.17 1479.5,1365C 1483.77,1363.97 1488.11,1363.3 1492.5,1363C 1505.83,1362.33 1519.17,1362.33 1532.5,1363C 1544.66,1363.77 1555.32,1367.93 1564.5,1375.5 Z M 1505.5,1384.5 C 1516.7,1383.97 1527.7,1385.14 1538.5,1388C 1542.67,1389.5 1545.5,1392.33 1547,1396.5C 1550.72,1410.75 1545.56,1419.42 1531.5,1422.5C 1521.83,1422.5 1512.17,1422.5 1502.5,1422.5C 1502.5,1410.17 1502.5,1397.83 1502.5,1385.5C 1503.79,1385.74 1504.79,1385.4 1505.5,1384.5 Z M 1502.5,1442.5 C 1511.51,1442.33 1520.51,1442.5 1529.5,1443C 1546.6,1446.33 1552.6,1456.5 1547.5,1473.5C 1546.09,1473.97 1545.43,1474.97 1545.5,1476.5C 1540.44,1480.19 1534.77,1482.52 1528.5,1483.5C 1519.83,1483.5 1511.17,1483.5 1502.5,1483.5C 1502.5,1469.83 1502.5,1456.17 1502.5,1442.5 Z"/></g>
<g><path style="opacity:1" fill="#cd9a16" d="M 1632.5,1362.5 C 1639.91,1362.15 1647.24,1362.65 1654.5,1364C 1659.28,1366.45 1663.12,1369.95 1666,1374.5C 1677.56,1416.56 1688.72,1458.73 1699.5,1501C 1699.41,1502.11 1699.08,1503.11 1698.5,1504C 1689.81,1504.83 1681.15,1504.67 1672.5,1503.5C 1668.87,1491.3 1665.7,1478.96 1663,1466.5C 1648.9,1465.18 1634.73,1465.18 1620.5,1466.5C 1617.32,1478.89 1613.99,1491.23 1610.5,1503.5C 1601.61,1504.82 1592.77,1504.82 1584,1503.5C 1593.71,1461.34 1604.37,1419.34 1616,1377.5C 1619.2,1369.79 1624.7,1364.79 1632.5,1362.5 Z M 1657.5,1442.5 C 1647.01,1443.49 1636.35,1443.83 1625.5,1443.5C 1630.48,1424.24 1635.15,1404.91 1639.5,1385.5C 1641.45,1385.23 1642.95,1385.89 1644,1387.5C 1648.35,1405.91 1652.85,1424.24 1657.5,1442.5 Z"/></g>
<g><path style="opacity:1" fill="#ce9b16" d="M 1806.5,1379.5 C 1806.43,1381.03 1807.09,1382.03 1808.5,1382.5C 1808.43,1384.03 1809.09,1385.03 1810.5,1385.5C 1813.78,1391.83 1815.12,1398.66 1814.5,1406C 1815.54,1425.26 1807.21,1438.6 1789.5,1446C 1798.46,1462.09 1807.29,1478.25 1816,1494.5C 1817.91,1497.3 1818.91,1500.3 1819,1503.5C 1809.56,1504.82 1800.06,1504.82 1790.5,1503.5C 1780.89,1485.94 1771.55,1468.27 1762.5,1450.5C 1756.02,1449.51 1749.35,1449.18 1742.5,1449.5C 1742.5,1467.5 1742.5,1485.5 1742.5,1503.5C 1734.1,1504.83 1725.6,1504.83 1717,1503.5C 1716.33,1457.83 1716.33,1412.17 1717,1366.5C 1722.92,1364.25 1729.09,1363.09 1735.5,1363C 1748.5,1362.33 1761.5,1362.33 1774.5,1363C 1787.67,1364.08 1798.33,1369.58 1806.5,1379.5 Z M 1747.5,1385.5 C 1754.17,1385.33 1760.84,1385.5 1767.5,1386C 1785.48,1388.78 1791.65,1398.94 1786,1416.5C 1782.22,1423.98 1776.05,1427.82 1767.5,1428C 1761.18,1428.5 1754.84,1428.67 1748.5,1428.5C 1747.08,1427.55 1745.41,1427.22 1743.5,1427.5C 1743.5,1413.83 1743.5,1400.17 1743.5,1386.5C 1745.1,1386.77 1746.43,1386.43 1747.5,1385.5 Z"/></g>
<g><path style="opacity:1" fill="#cd9a16" d="M 2186.5,1379.5 C 2186.43,1381.03 2187.09,1382.03 2188.5,1382.5C 2192.63,1387.77 2195.47,1393.77 2197,1400.5C 2199.91,1421.11 2200.24,1441.78 2198,1462.5C 2195.03,1485.13 2182.53,1499.3 2160.5,1505C 2146.56,1507.63 2132.89,1506.63 2119.5,1502C 2116.76,1500.97 2114.43,1499.47 2112.5,1497.5C 2112.03,1496.09 2111.03,1495.43 2109.5,1495.5C 2098.35,1486.2 2092.18,1474.2 2091,1459.5C 2090.33,1442.83 2090.33,1426.17 2091,1409.5C 2091.77,1400.36 2094.6,1392.02 2099.5,1384.5C 2100.91,1384.03 2101.57,1383.03 2101.5,1381.5C 2101.5,1380.83 2101.83,1380.5 2102.5,1380.5C 2103.91,1380.03 2104.57,1379.03 2104.5,1377.5C 2106.75,1376.92 2108.42,1375.59 2109.5,1373.5C 2114.42,1368.54 2120.42,1365.37 2127.5,1364C 2137.45,1362.47 2147.45,1362.14 2157.5,1363C 2169.33,1364.91 2178.99,1370.41 2186.5,1379.5 Z M 2166.5,1472.5 C 2165.09,1472.97 2164.43,1473.97 2164.5,1475.5C 2153.11,1483.8 2141.11,1484.63 2128.5,1478C 2123.38,1473.26 2120.21,1467.43 2119,1460.5C 2117.02,1443.16 2117.02,1425.83 2119,1408.5C 2121.1,1393.85 2129.6,1386.18 2144.5,1385.5C 2160.74,1386.57 2169.57,1395.24 2171,1411.5C 2171.67,1426.83 2171.67,1442.17 2171,1457.5C 2170.27,1462.77 2168.77,1467.77 2166.5,1472.5 Z"/></g>
<g><path style="opacity:1" fill="#ce9b16" d="M 2312.5,1379.5 C 2312.43,1381.03 2313.09,1382.03 2314.5,1382.5C 2314.43,1384.03 2315.09,1385.03 2316.5,1385.5C 2319.78,1391.83 2321.12,1398.66 2320.5,1406C 2321.54,1425.26 2313.21,1438.6 2295.5,1446C 2304.46,1462.09 2313.29,1478.25 2322,1494.5C 2323.91,1497.3 2324.91,1500.3 2325,1503.5C 2315.56,1504.82 2306.06,1504.82 2296.5,1503.5C 2286.89,1485.94 2277.55,1468.27 2268.5,1450.5C 2262.02,1449.51 2255.35,1449.18 2248.5,1449.5C 2248.5,1467.5 2248.5,1485.5 2248.5,1503.5C 2240.1,1504.83 2231.6,1504.83 2223,1503.5C 2222.33,1457.83 2222.33,1412.17 2223,1366.5C 2228.92,1364.25 2235.09,1363.09 2241.5,1363C 2254.5,1362.33 2267.5,1362.33 2280.5,1363C 2293.67,1364.08 2304.33,1369.58 2312.5,1379.5 Z M 2253.5,1385.5 C 2260.17,1385.33 2266.84,1385.5 2273.5,1386C 2291.48,1388.78 2297.65,1398.94 2292,1416.5C 2288.22,1423.98 2282.05,1427.82 2273.5,1428C 2267.18,1428.5 2260.84,1428.67 2254.5,1428.5C 2253.08,1427.55 2251.41,1427.22 2249.5,1427.5C 2249.5,1413.83 2249.5,1400.17 2249.5,1386.5C 2251.1,1386.77 2252.43,1386.43 2253.5,1385.5 Z"/></g>
<g><path style="opacity:1" fill="#ce9b16" d="M 2526.5,1378.5 C 2526.74,1380.4 2527.74,1381.74 2529.5,1382.5C 2534.5,1388.17 2537.67,1394.84 2539,1402.5C 2541,1423.5 2541,1444.5 2539,1465.5C 2533.73,1487.1 2520.23,1500.27 2498.5,1505C 2479.47,1507.01 2460.47,1506.68 2441.5,1504C 2440.58,1503.63 2439.75,1503.13 2439,1502.5C 2438.33,1457.17 2438.33,1411.83 2439,1366.5C 2440.83,1364.93 2442.99,1364.09 2445.5,1364C 2461.81,1362.53 2478.14,1362.19 2494.5,1363C 2507.2,1364.27 2517.86,1369.44 2526.5,1378.5 Z M 2486.5,1385.5 C 2499.97,1386.47 2508.47,1393.47 2512,1406.5C 2513.59,1423.46 2513.93,1440.46 2513,1457.5C 2512.19,1462.42 2510.69,1467.08 2508.5,1471.5C 2507.09,1471.97 2506.43,1472.97 2506.5,1474.5C 2502.59,1478.29 2497.93,1480.79 2492.5,1482C 2484.56,1483.32 2476.56,1483.82 2468.5,1483.5C 2467.79,1482.6 2466.79,1482.26 2465.5,1482.5C 2465.5,1450.17 2465.5,1417.83 2465.5,1385.5C 2472.5,1385.5 2479.5,1385.5 2486.5,1385.5 Z"/></g>
<g><path style="opacity:0.991" fill="#c9930f" d="M 2996.5,1358.5 C 3009.12,1371.75 3020.78,1385.75 3031.5,1400.5C 3031.17,1400.5 3030.83,1400.5 3030.5,1400.5C 3008.7,1397.62 2986.7,1395.29 2964.5,1393.5C 2964.74,1394.79 2964.4,1395.79 2963.5,1396.5C 2963.51,1393.46 2963.84,1390.46 2964.5,1387.5C 2975.17,1377.83 2985.83,1368.17 2996.5,1358.5 Z"/></g>
<g><path style="opacity:1" fill="#cd9a16" d="M 987.5,1500.5 C 987.027,1499.09 986.027,1498.43 984.5,1498.5C 977.849,1493.54 974.015,1486.87 973,1478.5C 972.333,1440.83 972.333,1403.17 973,1365.5C 973.5,1365 974,1364.5 974.5,1364C 978.167,1363.83 981.833,1363.67 985.5,1363.5C 989.947,1363.4 994.28,1363.9 998.5,1365C 999.016,1402.16 999.849,1439.32 1001,1476.5C 1002.17,1479 1004,1480.83 1006.5,1482C 1021.47,1483.21 1036.47,1483.88 1051.5,1484C 1052.64,1490.08 1052.81,1496.25 1052,1502.5C 1049.02,1503.92 1045.85,1504.75 1042.5,1505C 1027.82,1506.9 1013.16,1506.9 998.5,1505C 994.381,1504.36 990.715,1502.86 987.5,1500.5 Z"/></g>
<g><path style="opacity:1" fill="#ce9b16" d="M 1097.5,1412.5 C 1097.44,1411.96 1097.11,1411.62 1096.5,1411.5C 1095.5,1442.16 1095.17,1472.83 1095.5,1503.5C 1088.35,1504.49 1081.02,1504.82 1073.5,1504.5C 1072.71,1503.6 1071.71,1502.93 1070.5,1502.5C 1070.33,1457.5 1070.5,1412.5 1071,1367.5C 1072.21,1365.95 1073.71,1364.78 1075.5,1364C 1082.5,1363.33 1089.5,1363.33 1096.5,1364C 1098.29,1364.78 1099.79,1365.95 1101,1367.5C 1110.73,1387.96 1120.73,1408.29 1131,1428.5C 1141.76,1407.99 1152.26,1387.32 1162.5,1366.5C 1163.5,1365.67 1164.5,1364.83 1165.5,1364C 1172.83,1363.33 1180.17,1363.33 1187.5,1364C 1189.67,1364.83 1191.17,1366.33 1192,1368.5C 1192.67,1413.5 1192.67,1458.5 1192,1503.5C 1183.67,1504.83 1175.33,1504.83 1167,1503.5C 1166.67,1473.17 1166.33,1442.83 1166,1412.5C 1159.29,1425.41 1152.46,1438.25 1145.5,1451C 1136.17,1451.67 1126.83,1451.67 1117.5,1451C 1109.91,1438.66 1103.25,1425.83 1097.5,1412.5 Z"/></g>
<g><path style="opacity:1" fill="#ce9a16" d="M 1422.5,1467.5 C 1422.56,1468.04 1422.89,1468.38 1423.5,1468.5C 1424.5,1434.51 1424.83,1400.51 1424.5,1366.5C 1424.41,1365.5 1424.75,1364.67 1425.5,1364C 1432.5,1363.33 1439.5,1363.33 1446.5,1364C 1447,1364.5 1447.5,1365 1448,1365.5C 1448.67,1410.17 1448.67,1454.83 1448,1499.5C 1447.43,1501.49 1446.26,1502.99 1444.5,1504C 1434.17,1504.67 1423.83,1504.67 1413.5,1504C 1412.67,1503.17 1411.83,1502.33 1411,1501.5C 1396.26,1469.02 1381.26,1436.68 1366,1404.5C 1365.67,1437.5 1365.33,1470.5 1365,1503.5C 1357.33,1504.83 1349.67,1504.83 1342,1503.5C 1341.33,1458.17 1341.33,1412.83 1342,1367.5C 1343.21,1365.95 1344.71,1364.78 1346.5,1364C 1355.5,1363.33 1364.5,1363.33 1373.5,1364C 1374.93,1364.47 1376.1,1365.3 1377,1366.5C 1392.27,1400.15 1407.44,1433.82 1422.5,1467.5 Z"/></g>
<g><path style="opacity:1" fill="#cc9917" d="M 1964.5,1481.5 C 1964.56,1482.04 1964.89,1482.38 1965.5,1482.5C 1966.39,1481.68 1966.72,1480.68 1966.5,1479.5C 1971.35,1457.44 1976.51,1435.44 1982,1413.5C 1983.06,1410.44 1984.89,1407.94 1987.5,1406C 1996.5,1404 2005.5,1404 2014.5,1406C 2016.55,1406.93 2018.05,1408.43 2019,1410.5C 2024.84,1434.2 2030.84,1457.87 2037,1481.5C 2041.75,1443.18 2046.42,1404.84 2051,1366.5C 2051.5,1365.33 2052.33,1364.5 2053.5,1364C 2061.17,1363.33 2068.83,1363.33 2076.5,1364C 2077.89,1364.96 2078.56,1366.29 2078.5,1368C 2072.48,1408.14 2066.65,1448.3 2061,1488.5C 2060.2,1502.79 2052.7,1508.79 2038.5,1506.5C 2031.13,1507.91 2024.97,1505.91 2020,1500.5C 2013.07,1477.1 2007.23,1453.44 2002.5,1429.5C 2002.72,1428.32 2002.39,1427.32 2001.5,1426.5C 2000.89,1426.62 2000.56,1426.96 2000.5,1427.5C 1995.12,1452.04 1988.95,1476.37 1982,1500.5C 1980.04,1503.14 1977.54,1504.97 1974.5,1506C 1967.5,1506.67 1960.5,1506.67 1953.5,1506C 1951.94,1505.79 1950.61,1505.29 1949.5,1504.5C 1949.03,1503.09 1948.03,1502.43 1946.5,1502.5C 1944.86,1501.25 1943.7,1499.58 1943,1497.5C 1935.82,1453.57 1929.49,1409.57 1924,1365.5C 1924.5,1365 1925,1364.5 1925.5,1364C 1933.17,1363.33 1940.83,1363.33 1948.5,1364C 1949.67,1364.5 1950.5,1365.33 1951,1366.5C 1955.91,1404.79 1960.41,1443.13 1964.5,1481.5 Z"/></g>
<g><path style="opacity:1" fill="#cd9a16" d="M 2356.5,1500.5 C 2356.03,1499.09 2355.03,1498.43 2353.5,1498.5C 2346.85,1493.54 2343.02,1486.87 2342,1478.5C 2341.33,1440.83 2341.33,1403.17 2342,1365.5C 2342.5,1365 2343,1364.5 2343.5,1364C 2347.17,1363.83 2350.83,1363.67 2354.5,1363.5C 2358.95,1363.4 2363.28,1363.9 2367.5,1365C 2368.02,1402.16 2368.85,1439.32 2370,1476.5C 2371.17,1479 2373,1480.83 2375.5,1482C 2390.47,1483.21 2405.47,1483.88 2420.5,1484C 2421.64,1490.08 2421.81,1496.25 2421,1502.5C 2418.02,1503.92 2414.85,1504.75 2411.5,1505C 2396.82,1506.9 2382.16,1506.9 2367.5,1505C 2363.38,1504.36 2359.71,1502.86 2356.5,1500.5 Z"/></g>
<g><path style="opacity:0.955" fill="#ca9214" d="M 3069.5,1365.5 C 3080.5,1366.44 3091.5,1367.44 3102.5,1368.5C 3100.98,1371.53 3098.98,1374.2 3096.5,1376.5C 3089.13,1376.13 3081.8,1375.47 3074.5,1374.5C 3072.44,1371.76 3070.77,1368.76 3069.5,1365.5 Z"/></g>
<g><path style="opacity:0.44" fill="#7e631f" d="M 1424.5,1366.5 C 1424.83,1400.51 1424.5,1434.51 1423.5,1468.5C 1422.89,1468.38 1422.56,1468.04 1422.5,1467.5C 1423.17,1433.83 1423.83,1400.17 1424.5,1366.5 Z"/></g>
<g><path style="opacity:0.921" fill="#d29a14" d="M 3074.5,1374.5 C 3081.8,1375.47 3089.13,1376.13 3096.5,1376.5C 3093.19,1383.12 3089.86,1389.79 3086.5,1396.5C 3082.49,1389.14 3078.49,1381.81 3074.5,1374.5 Z"/></g>
<g><path style="opacity:0.996" fill="#9e791d" d="M 1564.5,1375.5 C 1566.26,1376.26 1567.26,1377.6 1567.5,1379.5C 1565.74,1378.74 1564.74,1377.4 1564.5,1375.5 Z"/></g>
<g><path style="opacity:0.996" fill="#aa821b" d="M 2109.5,1373.5 C 2108.42,1375.59 2106.75,1376.92 2104.5,1377.5C 2105.58,1375.41 2107.25,1374.08 2109.5,1373.5 Z"/></g>
<g><path style="opacity:0.965" fill="#97751d" d="M 2104.5,1377.5 C 2104.57,1379.03 2103.91,1380.03 2102.5,1380.5C 2102.43,1378.97 2103.09,1377.97 2104.5,1377.5 Z"/></g>
<g><path style="opacity:0.996" fill="#9e791d" d="M 2526.5,1378.5 C 2528.26,1379.26 2529.26,1380.6 2529.5,1382.5C 2527.74,1381.74 2526.74,1380.4 2526.5,1378.5 Z"/></g>
<g><path style="opacity:0.906" fill="#9c781c" d="M 1806.5,1379.5 C 1807.91,1379.97 1808.57,1380.97 1808.5,1382.5C 1807.09,1382.03 1806.43,1381.03 1806.5,1379.5 Z"/></g>
<g><path style="opacity:0.937" fill="#a07a1c" d="M 2186.5,1379.5 C 2187.91,1379.97 2188.57,1380.97 2188.5,1382.5C 2187.09,1382.03 2186.43,1381.03 2186.5,1379.5 Z"/></g>
<g><path style="opacity:0.906" fill="#9c781c" d="M 2312.5,1379.5 C 2313.91,1379.97 2314.57,1380.97 2314.5,1382.5C 2313.09,1382.03 2312.43,1381.03 2312.5,1379.5 Z"/></g>
<g><path style="opacity:0.997" fill="#cd9710" d="M 2835.5,1382.5 C 2859.35,1384.42 2883.02,1386.76 2906.5,1389.5C 2896.83,1398.83 2887.17,1408.17 2877.5,1417.5C 2868.93,1425.28 2860.6,1433.28 2852.5,1441.5C 2849.31,1435.83 2845.14,1430.83 2840,1426.5C 2835.81,1421.18 2834.48,1415.18 2836,1408.5C 2838.59,1403.82 2840.76,1398.99 2842.5,1394C 2841.07,1389.08 2838.07,1385.58 2833.5,1383.5C 2833.84,1382.66 2834.51,1382.33 2835.5,1382.5 Z"/></g>
<g><path style="opacity:0.753" fill="#91711d" d="M 2101.5,1381.5 C 2101.57,1383.03 2100.91,1384.03 2099.5,1384.5C 2099.43,1382.97 2100.09,1381.97 2101.5,1381.5 Z"/></g>
<g><path style="opacity:0.967" fill="#c08712" d="M 2915.5,1381.5 C 2911.73,1394.66 2908.73,1407.99 2906.5,1421.5C 2897.52,1420.61 2888.52,1419.78 2879.5,1419C 2878.58,1418.72 2877.92,1418.22 2877.5,1417.5C 2887.17,1408.17 2896.83,1398.83 2906.5,1389.5C 2909.5,1386.83 2912.5,1384.17 2915.5,1381.5 Z"/></g>
<g><path style="opacity:0.753" fill="#92711d" d="M 1808.5,1382.5 C 1809.91,1382.97 1810.57,1383.97 1810.5,1385.5C 1809.09,1385.03 1808.43,1384.03 1808.5,1382.5 Z"/></g>
<g><path style="opacity:0.753" fill="#92711d" d="M 2314.5,1382.5 C 2315.91,1382.97 2316.57,1383.97 2316.5,1385.5C 2315.09,1385.03 2314.43,1384.03 2314.5,1382.5 Z"/></g>
<g><path style="opacity:0.753" fill="#90701d" d="M 2486.5,1385.5 C 2479.5,1385.5 2472.5,1385.5 2465.5,1385.5C 2465.5,1417.83 2465.5,1450.17 2465.5,1482.5C 2466.79,1482.26 2467.79,1482.6 2468.5,1483.5C 2467.17,1483.5 2465.83,1483.5 2464.5,1483.5C 2464.5,1450.5 2464.5,1417.5 2464.5,1384.5C 2472.02,1384.18 2479.35,1384.51 2486.5,1385.5 Z"/></g>
<g><path style="opacity:0.753" fill="#8e6f1d" d="M 1747.5,1385.5 C 1746.43,1386.43 1745.1,1386.77 1743.5,1386.5C 1743.5,1400.17 1743.5,1413.83 1743.5,1427.5C 1745.41,1427.22 1747.08,1427.55 1748.5,1428.5C 1746.5,1428.5 1744.5,1428.5 1742.5,1428.5C 1742.5,1414.17 1742.5,1399.83 1742.5,1385.5C 1744.17,1385.5 1745.83,1385.5 1747.5,1385.5 Z"/></g>
<g><path style="opacity:0.753" fill="#8e6f1d" d="M 2253.5,1385.5 C 2252.43,1386.43 2251.1,1386.77 2249.5,1386.5C 2249.5,1400.17 2249.5,1413.83 2249.5,1427.5C 2251.41,1427.22 2253.08,1427.55 2254.5,1428.5C 2252.5,1428.5 2250.5,1428.5 2248.5,1428.5C 2248.5,1414.17 2248.5,1399.83 2248.5,1385.5C 2250.17,1385.5 2251.83,1385.5 2253.5,1385.5 Z"/></g>
<g><path style="opacity:0.999" fill="#cc9610" d="M 3030.5,1400.5 C 3021.53,1409.14 3012.53,1417.81 3003.5,1426.5C 2990.02,1424.34 2976.35,1422.68 2962.5,1421.5C 2962.2,1413.08 2962.53,1404.75 2963.5,1396.5C 2964.4,1395.79 2964.74,1394.79 2964.5,1393.5C 2986.7,1395.29 3008.7,1397.62 3030.5,1400.5 Z"/></g>
<g><path style="opacity:0.973" fill="#c08712" d="M 3030.5,1400.5 C 3030.83,1400.5 3031.17,1400.5 3031.5,1400.5C 3039.93,1410.6 3047.6,1421.27 3054.5,1432.5C 3053.83,1432.83 3053.17,1433.17 3052.5,1433.5C 3035.25,1432.87 3018.25,1431.2 3001.5,1428.5C 3002.17,1427.83 3002.83,1427.17 3003.5,1426.5C 3012.53,1417.81 3021.53,1409.14 3030.5,1400.5 Z"/></g>
<g><path style="opacity:0.983" fill="#bf8612" d="M 3171.5,1404.5 C 3185.64,1406.32 3199.98,1407.65 3214.5,1408.5C 3203.5,1419.17 3192.5,1429.83 3181.5,1440.5C 3179.83,1441.83 3178.17,1443.17 3176.5,1444.5C 3164.15,1443.67 3151.82,1442.67 3139.5,1441.5C 3150.2,1429.14 3160.86,1416.81 3171.5,1404.5 Z"/></g>
<g><path style="opacity:0.753" fill="#90701d" d="M 1097.5,1412.5 C 1096.83,1442.83 1096.17,1473.17 1095.5,1503.5C 1095.17,1472.83 1095.5,1442.16 1096.5,1411.5C 1097.11,1411.62 1097.44,1411.96 1097.5,1412.5 Z"/></g>
<g><path style="opacity:0.994" fill="#cc9610" d="M 3226.5,1397.5 C 3227.11,1406.76 3227.27,1416.1 3227,1425.5C 3230.17,1431.68 3234.5,1437.01 3240,1441.5C 3241.09,1443.08 3241.93,1444.74 3242.5,1446.5C 3222.21,1444.38 3201.87,1442.38 3181.5,1440.5C 3192.5,1429.83 3203.5,1419.17 3214.5,1408.5C 3218.5,1404.83 3222.5,1401.17 3226.5,1397.5 Z"/></g>
<g><path style="opacity:0.99" fill="#c48c12" d="M 2877.5,1417.5 C 2877.92,1418.22 2878.58,1418.72 2879.5,1419C 2888.52,1419.78 2897.52,1420.61 2906.5,1421.5C 2905.34,1429.46 2904.67,1437.46 2904.5,1445.5C 2900.77,1449.23 2896.77,1452.57 2892.5,1455.5C 2880.51,1454.39 2868.51,1453.39 2856.5,1452.5C 2855.45,1448.73 2854.12,1445.07 2852.5,1441.5C 2860.6,1433.28 2868.93,1425.28 2877.5,1417.5 Z"/></g>
<g><path style="opacity:0.988" fill="#cf9910" d="M 2962.5,1421.5 C 2976.35,1422.68 2990.02,1424.34 3003.5,1426.5C 3002.83,1427.17 3002.17,1427.83 3001.5,1428.5C 2990.8,1439.2 2979.8,1449.53 2968.5,1459.5C 2964.99,1447.08 2962.99,1434.42 2962.5,1421.5 Z"/></g>
<g><path style="opacity:0.753" fill="#92711c" d="M 1505.5,1384.5 C 1504.79,1385.4 1503.79,1385.74 1502.5,1385.5C 1502.5,1397.83 1502.5,1410.17 1502.5,1422.5C 1512.17,1422.5 1521.83,1422.5 1531.5,1422.5C 1521.68,1423.49 1511.68,1423.83 1501.5,1423.5C 1501.5,1410.5 1501.5,1397.5 1501.5,1384.5C 1502.83,1384.5 1504.17,1384.5 1505.5,1384.5 Z"/></g>
<g><path style="opacity:0.439" fill="#906f1d" d="M 2000.5,1427.5 C 2000.56,1426.96 2000.89,1426.62 2001.5,1426.5C 2002.39,1427.32 2002.72,1428.32 2002.5,1429.5C 2001.83,1428.83 2001.17,1428.17 2000.5,1427.5 Z"/></g>
<g><path style="opacity:0.999" fill="#c48c12" d="M 3001.5,1428.5 C 3018.25,1431.2 3035.25,1432.87 3052.5,1433.5C 3041.16,1444.84 3029.49,1455.84 3017.5,1466.5C 3001.53,1464.84 2985.53,1463.5 2969.5,1462.5C 2969.44,1461.39 2969.11,1460.39 2968.5,1459.5C 2979.8,1449.53 2990.8,1439.2 3001.5,1428.5 Z"/></g>
<g><path style="opacity:1" fill="#d09a10" d="M 3181.5,1440.5 C 3201.87,1442.38 3222.21,1444.38 3242.5,1446.5C 3244.77,1448.61 3246.1,1451.28 3246.5,1454.5C 3238.53,1461.13 3230.87,1468.13 3223.5,1475.5C 3200.04,1472.52 3176.38,1470.18 3152.5,1468.5C 3160.19,1460.14 3168.19,1452.14 3176.5,1444.5C 3178.17,1443.17 3179.83,1441.83 3181.5,1440.5 Z"/></g>
<g><path style="opacity:0.982" fill="#c48c13" d="M 3139.5,1441.5 C 3151.82,1442.67 3164.15,1443.67 3176.5,1444.5C 3168.19,1452.14 3160.19,1460.14 3152.5,1468.5C 3147.89,1471.77 3143.56,1475.43 3139.5,1479.5C 3130.79,1479.27 3122.12,1478.61 3113.5,1477.5C 3121.01,1464.66 3129.68,1452.66 3139.5,1441.5 Z"/></g>
<g><path style="opacity:0.753" fill="#92721c" d="M 1502.5,1442.5 C 1502.5,1456.17 1502.5,1469.83 1502.5,1483.5C 1511.17,1483.5 1519.83,1483.5 1528.5,1483.5C 1519.68,1484.49 1510.68,1484.83 1501.5,1484.5C 1501.17,1470.32 1501.5,1456.32 1502.5,1442.5 Z"/></g>
<g><path style="opacity:0.937" fill="#ac8319" d="M 917.5,1442.5 C 918.043,1442.56 918.376,1442.89 918.5,1443.5C 907.34,1444.82 896.34,1444.82 885.5,1443.5C 896.346,1443.83 907.013,1443.49 917.5,1442.5 Z"/></g>
<g><path style="opacity:0.937" fill="#ac8319" d="M 1282.5,1442.5 C 1283.04,1442.56 1283.38,1442.89 1283.5,1443.5C 1272.34,1444.82 1261.34,1444.82 1250.5,1443.5C 1261.35,1443.83 1272.01,1443.49 1282.5,1442.5 Z"/></g>
<g><path style="opacity:0.937" fill="#9f7a1c" d="M 1568.5,1441.5 C 1569.91,1441.97 1570.57,1442.97 1570.5,1444.5C 1569.09,1444.03 1568.43,1443.03 1568.5,1441.5 Z"/></g>
<g><path style="opacity:0.937" fill="#ac8319" d="M 1657.5,1442.5 C 1658.04,1442.56 1658.38,1442.89 1658.5,1443.5C 1647.34,1444.82 1636.34,1444.82 1625.5,1443.5C 1636.35,1443.83 1647.01,1443.49 1657.5,1442.5 Z"/></g>
<g><path style="opacity:0.753" fill="#93721c" d="M 1762.5,1450.5 C 1756.17,1450.5 1749.83,1450.5 1743.5,1450.5C 1743.83,1468.34 1743.5,1486.01 1742.5,1503.5C 1742.5,1485.5 1742.5,1467.5 1742.5,1449.5C 1749.35,1449.18 1756.02,1449.51 1762.5,1450.5 Z"/></g>
<g><path style="opacity:0.753" fill="#93721c" d="M 2268.5,1450.5 C 2262.17,1450.5 2255.83,1450.5 2249.5,1450.5C 2249.83,1468.34 2249.5,1486.01 2248.5,1503.5C 2248.5,1485.5 2248.5,1467.5 2248.5,1449.5C 2255.35,1449.18 2262.02,1449.51 2268.5,1450.5 Z"/></g>
<g><path style="opacity:0.967" fill="#c68d13" d="M 3246.5,1454.5 C 3249.52,1466.38 3248.18,1477.71 3242.5,1488.5C 3232.61,1488.32 3222.94,1487.32 3213.5,1485.5C 3216.53,1481.81 3219.86,1478.47 3223.5,1475.5C 3230.87,1468.13 3238.53,1461.13 3246.5,1454.5 Z"/></g>
<g><path style="opacity:0.97" fill="#c89013" d="M 2856.5,1452.5 C 2868.51,1453.39 2880.51,1454.39 2892.5,1455.5C 2885.47,1463.19 2878.14,1470.53 2870.5,1477.5C 2860.38,1472.27 2855.72,1463.93 2856.5,1452.5 Z"/></g>
<g><path style="opacity:0.998" fill="#d29c10" d="M 3054.5,1432.5 C 3065.09,1447.33 3074.42,1463 3082.5,1479.5C 3081.17,1481.5 3079.5,1483.17 3077.5,1484.5C 3053.5,1482.5 3029.5,1480.5 3005.5,1478.5C 3009.19,1474.14 3013.19,1470.14 3017.5,1466.5C 3029.49,1455.84 3041.16,1444.84 3052.5,1433.5C 3053.17,1433.17 3053.83,1432.83 3054.5,1432.5 Z"/></g>
<g><path style="opacity:0.977" fill="#c99013" d="M 2969.5,1462.5 C 2985.53,1463.5 3001.53,1464.84 3017.5,1466.5C 3013.19,1470.14 3009.19,1474.14 3005.5,1478.5C 2998.47,1485.19 2991.47,1491.86 2984.5,1498.5C 2978.43,1487.02 2973.43,1475.02 2969.5,1462.5 Z"/></g>
<g><path style="opacity:0.982" fill="#d5a010" d="M 2904.5,1445.5 C 2903.39,1463.21 2904.06,1480.88 2906.5,1498.5C 2896.77,1497.55 2887.11,1496.22 2877.5,1494.5C 2877.84,1490.58 2878.51,1486.75 2879.5,1483C 2876.81,1480.65 2873.81,1478.82 2870.5,1477.5C 2878.14,1470.53 2885.47,1463.19 2892.5,1455.5C 2896.77,1452.57 2900.77,1449.23 2904.5,1445.5 Z"/></g>
<g><path style="opacity:1" fill="#d39d10" d="M 3152.5,1468.5 C 3176.38,1470.18 3200.04,1472.52 3223.5,1475.5C 3219.86,1478.47 3216.53,1481.81 3213.5,1485.5C 3209.77,1489.23 3205.77,1492.57 3201.5,1495.5C 3177.54,1493.08 3153.54,1491.08 3129.5,1489.5C 3133.14,1486.53 3136.47,1483.19 3139.5,1479.5C 3143.56,1475.43 3147.89,1471.77 3152.5,1468.5 Z"/></g>
<g><path style="opacity:0.937" fill="#a07a1c" d="M 2508.5,1471.5 C 2508.57,1473.03 2507.91,1474.03 2506.5,1474.5C 2506.43,1472.97 2507.09,1471.97 2508.5,1471.5 Z"/></g>
<g><path style="opacity:0.863" fill="#95731d" d="M 2166.5,1472.5 C 2166.57,1474.03 2165.91,1475.03 2164.5,1475.5C 2164.43,1473.97 2165.09,1472.97 2166.5,1472.5 Z"/></g>
<g><path style="opacity:0.863" fill="#98751d" d="M 1547.5,1473.5 C 1547.57,1475.03 1546.91,1476.03 1545.5,1476.5C 1545.43,1474.97 1546.09,1473.97 1547.5,1473.5 Z"/></g>
<g><path style="opacity:0.978" fill="#cb9313" d="M 3113.5,1477.5 C 3122.12,1478.61 3130.79,1479.27 3139.5,1479.5C 3136.47,1483.19 3133.14,1486.53 3129.5,1489.5C 3120.47,1498.19 3111.47,1506.86 3102.5,1515.5C 3101.17,1516.5 3099.83,1517.5 3098.5,1518.5C 3081.27,1517.65 3064.27,1515.98 3047.5,1513.5C 3048.5,1513.17 3049.17,1512.5 3049.5,1511.5C 3059.26,1502.95 3068.59,1493.95 3077.5,1484.5C 3079.5,1483.17 3081.17,1481.5 3082.5,1479.5C 3088.15,1488.79 3093.31,1498.45 3098,1508.5C 3102.13,1497.58 3107.29,1487.25 3113.5,1477.5 Z"/></g>
<g><path style="opacity:0.999" fill="#d6a011" d="M 3005.5,1478.5 C 3029.5,1480.5 3053.5,1482.5 3077.5,1484.5C 3068.59,1493.95 3059.26,1502.95 3049.5,1511.5C 3031.06,1508.85 3012.39,1506.85 2993.5,1505.5C 2991.63,1505.51 2989.96,1505.84 2988.5,1506.5C 2986.66,1504.15 2985.33,1501.48 2984.5,1498.5C 2991.47,1491.86 2998.47,1485.19 3005.5,1478.5 Z"/></g>
<g><path style="opacity:0.906" fill="#90701d" d="M 1966.5,1479.5 C 1966.72,1480.68 1966.39,1481.68 1965.5,1482.5C 1964.89,1482.38 1964.56,1482.04 1964.5,1481.5C 1965.17,1480.83 1965.83,1480.17 1966.5,1479.5 Z"/></g>
<g><path style="opacity:0.986" fill="#cb9313" d="M 3213.5,1485.5 C 3222.94,1487.32 3232.61,1488.32 3242.5,1488.5C 3236.07,1502.36 3229.4,1516.03 3222.5,1529.5C 3205.64,1528.37 3188.97,1526.71 3172.5,1524.5C 3172.83,1523.83 3173.17,1523.17 3173.5,1522.5C 3183.44,1514.23 3192.77,1505.23 3201.5,1495.5C 3205.77,1492.57 3209.77,1489.23 3213.5,1485.5 Z"/></g>
<g><path style="opacity:1" fill="#d6a011" d="M 3129.5,1489.5 C 3153.54,1491.08 3177.54,1493.08 3201.5,1495.5C 3192.77,1505.23 3183.44,1514.23 3173.5,1522.5C 3173.08,1521.78 3172.42,1521.28 3171.5,1521C 3148.52,1518.89 3125.52,1517.06 3102.5,1515.5C 3111.47,1506.86 3120.47,1498.19 3129.5,1489.5 Z"/></g>
<g><path style="opacity:0.989" fill="#d9a411" d="M 2877.5,1494.5 C 2887.11,1496.22 2896.77,1497.55 2906.5,1498.5C 2907.88,1504.07 2908.88,1509.73 2909.5,1515.5C 2902.19,1522.47 2894.86,1529.47 2887.5,1536.5C 2880.75,1523.43 2877.42,1509.43 2877.5,1494.5 Z"/></g>
<g><path style="opacity:0.906" fill="#99761c" d="M 2109.5,1495.5 C 2111.03,1495.43 2112.03,1496.09 2112.5,1497.5C 2110.97,1497.57 2109.97,1496.91 2109.5,1495.5 Z"/></g>
<g><path style="opacity:0.812" fill="#94721d" d="M 984.5,1498.5 C 986.027,1498.43 987.027,1499.09 987.5,1500.5C 985.973,1500.57 984.973,1499.91 984.5,1498.5 Z"/></g>
<g><path style="opacity:0.812" fill="#94721d" d="M 2353.5,1498.5 C 2355.03,1498.43 2356.03,1499.09 2356.5,1500.5C 2354.97,1500.57 2353.97,1499.91 2353.5,1498.5 Z"/></g>
<g><path style="opacity:0.812" fill="#91701d" d="M 1476.5,1500.5 C 1478.03,1500.43 1479.03,1501.09 1479.5,1502.5C 1477.97,1502.57 1476.97,1501.91 1476.5,1500.5 Z"/></g>
<g><path style="opacity:0.984" fill="#9f7a1c" d="M 1070.5,1502.5 C 1071.71,1502.93 1072.71,1503.6 1073.5,1504.5C 1071.82,1504.71 1070.82,1504.05 1070.5,1502.5 Z"/></g>
<g><path style="opacity:0.753" fill="#91711d" d="M 1946.5,1502.5 C 1948.03,1502.43 1949.03,1503.09 1949.5,1504.5C 1947.97,1504.57 1946.97,1503.91 1946.5,1502.5 Z"/></g>
<g><path style="opacity:0.997" fill="#d9a411" d="M 3049.5,1511.5 C 3049.17,1512.5 3048.5,1513.17 3047.5,1513.5C 3035.47,1525.53 3023.14,1537.2 3010.5,1548.5C 3002.66,1534.82 2995.33,1520.82 2988.5,1506.5C 2989.96,1505.84 2991.63,1505.51 2993.5,1505.5C 3012.39,1506.85 3031.06,1508.85 3049.5,1511.5 Z"/></g>
<g><path style="opacity:1" fill="#d19913" d="M 3047.5,1513.5 C 3064.27,1515.98 3081.27,1517.65 3098.5,1518.5C 3094.5,1522.5 3090.5,1526.5 3086.5,1530.5C 3077.83,1538.5 3069.17,1546.5 3060.5,1554.5C 3044.19,1552.89 3027.86,1551.56 3011.5,1550.5C 3011.17,1549.83 3010.83,1549.17 3010.5,1548.5C 3023.14,1537.2 3035.47,1525.53 3047.5,1513.5 Z"/></g>
<g><path style="opacity:0.966" fill="#d39b13" d="M 2909.5,1515.5 C 2912.14,1524.73 2914.81,1534.06 2917.5,1543.5C 2908.22,1542.38 2898.89,1541.38 2889.5,1540.5C 2888.33,1539.49 2887.66,1538.15 2887.5,1536.5C 2894.86,1529.47 2902.19,1522.47 2909.5,1515.5 Z"/></g>
<g><path style="opacity:1" fill="#d9a311" d="M 3102.5,1515.5 C 3125.52,1517.06 3148.52,1518.89 3171.5,1521C 3172.42,1521.28 3173.08,1521.78 3173.5,1522.5C 3173.17,1523.17 3172.83,1523.83 3172.5,1524.5C 3167.8,1529.21 3162.8,1533.54 3157.5,1537.5C 3133.93,1535.12 3110.27,1532.78 3086.5,1530.5C 3090.5,1526.5 3094.5,1522.5 3098.5,1518.5C 3099.83,1517.5 3101.17,1516.5 3102.5,1515.5 Z"/></g>
<g><path style="opacity:1" fill="#d19913" d="M 3172.5,1524.5 C 3188.97,1526.71 3205.64,1528.37 3222.5,1529.5C 3222.5,1530.17 3222.5,1530.83 3222.5,1531.5C 3209.56,1542.44 3196.89,1553.77 3184.5,1565.5C 3168.43,1564.95 3152.43,1563.62 3136.5,1561.5C 3136.14,1560.82 3135.8,1560.15 3135.5,1559.5C 3143.14,1552.53 3150.47,1545.19 3157.5,1537.5C 3162.8,1533.54 3167.8,1529.21 3172.5,1524.5 Z"/></g>
<g><path style="opacity:1" fill="#dca611" d="M 3086.5,1530.5 C 3110.27,1532.78 3133.93,1535.12 3157.5,1537.5C 3150.47,1545.19 3143.14,1552.53 3135.5,1559.5C 3132.17,1562.5 3128.83,1565.5 3125.5,1568.5C 3124.39,1567.71 3123.06,1567.21 3121.5,1567C 3099.18,1564.9 3076.85,1563.06 3054.5,1561.5C 3056.5,1559.17 3058.5,1556.83 3060.5,1554.5C 3069.17,1546.5 3077.83,1538.5 3086.5,1530.5 Z"/></g>
<g><path style="opacity:0.964" fill="#d79f14" d="M 2889.5,1540.5 C 2898.89,1541.38 2908.22,1542.38 2917.5,1543.5C 2919.17,1548.17 2920.83,1552.83 2922.5,1557.5C 2912.1,1566.24 2902.43,1575.57 2893.5,1585.5C 2887.64,1584.62 2886.31,1581.79 2889.5,1577C 2893.83,1576.01 2895.83,1573.34 2895.5,1569C 2894.71,1559.21 2892.71,1549.71 2889.5,1540.5 Z"/></g>
<g><path style="opacity:0.982" fill="#dca611" d="M 3222.5,1531.5 C 3216.13,1546.23 3209.8,1560.9 3203.5,1575.5C 3203.39,1574.88 3203.06,1574.38 3202.5,1574C 3194.65,1573.43 3186.99,1572.6 3179.5,1571.5C 3181.17,1569.5 3182.83,1567.5 3184.5,1565.5C 3196.89,1553.77 3209.56,1542.44 3222.5,1531.5 Z"/></g>
<g><path style="opacity:0.975" fill="#d69e14" d="M 3011.5,1550.5 C 3027.86,1551.56 3044.19,1552.89 3060.5,1554.5C 3058.5,1556.83 3056.5,1559.17 3054.5,1561.5C 3046.52,1568.48 3038.52,1575.48 3030.5,1582.5C 3023.68,1572.2 3017.34,1561.53 3011.5,1550.5 Z"/></g>
<g><path style="opacity:0.992" fill="#d79f14" d="M 3135.5,1559.5 C 3135.8,1560.15 3136.14,1560.82 3136.5,1561.5C 3152.43,1563.62 3168.43,1564.95 3184.5,1565.5C 3182.83,1567.5 3181.17,1569.5 3179.5,1571.5C 3169.46,1579.88 3160.13,1588.88 3151.5,1598.5C 3132.15,1598.34 3112.82,1598.67 3093.5,1599.5C 3104.11,1589.22 3114.78,1578.89 3125.5,1568.5C 3128.83,1565.5 3132.17,1562.5 3135.5,1559.5 Z"/></g>
<g><path style="opacity:0.963" fill="#e1ac12" d="M 2922.5,1557.5 C 2926.42,1567.83 2930.75,1578 2935.5,1588C 2926.86,1589.25 2918.19,1589.58 2909.5,1589C 2907.29,1586.78 2904.95,1584.61 2902.5,1582.5C 2899.52,1583.66 2896.52,1584.66 2893.5,1585.5C 2902.43,1575.57 2912.1,1566.24 2922.5,1557.5 Z"/></g>
<g><path style="opacity:0.994" fill="#dfaa12" d="M 3179.5,1571.5 C 3186.99,1572.6 3194.65,1573.43 3202.5,1574C 3203.06,1574.38 3203.39,1574.88 3203.5,1575.5C 3201.62,1580.93 3199.46,1586.26 3197,1591.5C 3195.83,1593.33 3194.33,1594.83 3192.5,1596C 3178.88,1597.21 3165.22,1598.04 3151.5,1598.5C 3160.13,1588.88 3169.46,1579.88 3179.5,1571.5 Z"/></g>
<g><path style="opacity:0.981" fill="#e1ab11" d="M 3054.5,1561.5 C 3076.85,1563.06 3099.18,1564.9 3121.5,1567C 3123.06,1567.21 3124.39,1567.71 3125.5,1568.5C 3114.78,1578.89 3104.11,1589.22 3093.5,1599.5C 3075.82,1599.68 3058.16,1599.84 3040.5,1600C 3036.51,1594.52 3033.18,1588.69 3030.5,1582.5C 3038.52,1575.48 3046.52,1568.48 3054.5,1561.5 Z"/></g>
</svg>
